<svg width="42" height="42" viewBox="0 0 42 42" fill="none" xmlns="http://www.w3.org/2000/svg">
<path fill-rule="evenodd" clip-rule="evenodd" d="M0.166342 21C0.166341 9.50005 9.5205 0.166713 20.9997 0.166712L21.5825 0.174719C32.8134 0.483716 41.833 9.69496 41.833 21C41.833 32.4792 32.4997 41.8334 20.9997 41.8334C9.52051 41.8334 0.166343 32.4792 0.166342 21ZM25.1247 29.3333C25.7288 28.7083 25.7288 27.7291 25.1038 27.1249L18.958 20.9999L25.1038 14.8749C25.7288 14.2708 25.7288 13.2708 25.1247 12.6666C24.4997 12.0416 23.5205 12.0416 22.9163 12.6666L15.6455 19.8958C15.3538 20.1874 15.1872 20.5833 15.1872 20.9999C15.1872 21.4166 15.3538 21.8124 15.6455 22.1041L22.9163 29.3333C23.208 29.6458 23.6038 29.7916 23.9997 29.7916C24.4163 29.7916 24.8122 29.6458 25.1247 29.3333Z" fill="black"/>
</svg>
