<svg width="30" height="34" viewBox="0 0 30 34" fill="none" xmlns="http://www.w3.org/2000/svg">
<path fill-rule="evenodd" clip-rule="evenodd" d="M18.2582 3.11256C18.2044 3.10204 18.149 3.09656 18.0924 3.09656C18.0358 3.09656 17.9804 3.10204 17.9265 3.11256H10.1045C6.99539 3.11256 4.37451 5.87213 4.37451 9.238V23.889C4.37451 27.4455 6.88026 30.2634 10.1045 30.2634H20.0908C23.1574 30.2634 25.6895 27.3067 25.6895 23.889V11.3537C25.6895 11.0889 25.5959 10.8344 25.4283 10.6433L19.0971 3.42792C18.9203 3.22645 18.676 3.11256 18.4208 3.11256H18.2582ZM17.1549 5.16285L10.1045 5.16395C8.01518 5.16395 6.24951 7.02305 6.24951 9.238V23.889C6.24951 26.325 7.92749 28.212 10.1045 28.212H20.0908C22.0936 28.212 23.8145 26.2026 23.8145 23.889L23.8137 12.6466L22.7193 12.6507C22.3023 12.6501 21.8279 12.6491 21.3004 12.6478C19.0885 12.6427 17.2833 10.7459 17.1614 8.35822L17.1549 8.10058V5.16285ZM22.7877 10.5962L21.3045 10.5964C20.0477 10.5935 19.0299 9.477 19.0299 8.10058V6.31374L22.7877 10.5962ZM17.8549 20.6121C18.3727 20.6121 18.7924 21.0714 18.7924 21.6378C18.7924 22.1571 18.4397 22.5862 17.9821 22.6542L17.8549 22.6635H11.1086C10.5909 22.6635 10.1711 22.2043 10.1711 21.6378C10.1711 21.1186 10.5238 20.6894 10.9814 20.6215L11.1086 20.6121H17.8549ZM16.2405 14.8652C16.2405 14.2988 15.8208 13.8395 15.303 13.8395H11.108L10.9808 13.8489C10.5232 13.9168 10.1705 14.346 10.1705 14.8652C10.1705 15.4317 10.5902 15.8909 11.108 15.8909H15.303L15.4302 15.8816C15.8878 15.8137 16.2405 15.3845 16.2405 14.8652Z" fill="#200E32"/>
</svg>
