<?xml version="1.0" standalone="no"?>
<!DOCTYPE svg PUBLIC "-//W3C//DTD SVG 20010904//EN"
 "http://www.w3.org/TR/2001/REC-SVG-20010904/DTD/svg10.dtd">
<svg version="1.0" xmlns="http://www.w3.org/2000/svg"
 width="1152.000000pt" height="1152.000000pt" viewBox="0 0 1152.000000 1152.000000"
 preserveAspectRatio="xMidYMid meet">
<metadata>
Created by potrace 1.14, written by Peter Selinger 2001-2017
</metadata>
<g transform="translate(0.000000,1152.000000) scale(0.100000,-0.100000)"
fill="#000000" stroke="none">
<path d="M10943 7786 c-10 -7 -28 -11 -40 -10 -13 1 -23 -2 -23 -7 0 -5 -7 -6
-15 -3 -8 4 -15 1 -15 -5 0 -6 -9 -11 -19 -11 -11 0 -23 -5 -26 -10 -4 -6 -10
-8 -15 -5 -4 3 -10 -2 -14 -10 -3 -8 -15 -15 -26 -15 -11 0 -20 -5 -20 -11 0
-5 -4 -8 -9 -5 -5 3 -12 -1 -15 -10 -3 -8 -10 -12 -16 -9 -5 3 -10 1 -10 -5 0
-6 -4 -8 -10 -5 -5 3 -10 1 -10 -5 0 -6 -5 -8 -10 -5 -6 3 -13 -1 -16 -9 -3
-9 -10 -14 -14 -11 -4 3 -11 -2 -14 -11 -4 -9 -9 -14 -13 -10 -3 3 -13 -4 -21
-15 -12 -17 -16 -18 -23 -8 -7 11 -9 10 -9 -3 0 -10 -7 -18 -15 -18 -8 0 -15
-5 -15 -11 0 -5 -4 -8 -9 -5 -5 3 -11 -1 -15 -9 -3 -8 -11 -15 -17 -15 -6 0
-20 -9 -30 -21 -10 -11 -22 -18 -28 -15 -5 4 -12 -3 -16 -14 -4 -11 -11 -18
-16 -15 -5 4 -9 2 -9 -3 0 -5 -9 -12 -21 -15 -12 -3 -18 -10 -14 -16 5 -10 -7
-15 -27 -12 -5 0 -8 -4 -8 -10 0 -5 -5 -7 -10 -4 -6 4 -9 1 -8 -7 2 -7 -3 -12
-9 -10 -7 1 -13 -5 -13 -14 0 -8 -4 -13 -9 -9 -6 3 -14 -3 -20 -12 -6 -10 -11
-14 -11 -10 0 5 -7 1 -16 -7 -8 -9 -20 -14 -25 -11 -5 4 -6 -2 -2 -11 4 -12 3
-15 -5 -10 -7 4 -12 2 -12 -4 0 -6 -5 -8 -12 -4 -7 4 -8 3 -4 -4 9 -15 -39
-46 -56 -36 -9 6 -9 3 1 -9 12 -15 12 -17 -4 -11 -13 5 -16 4 -11 -4 6 -11 -5
-17 -26 -13 -5 0 -8 -6 -8 -15 0 -8 -4 -12 -10 -9 -5 3 -10 -1 -10 -10 0 -9
-4 -13 -10 -10 -5 3 -10 -2 -10 -12 0 -15 -2 -16 -10 -3 -9 13 -14 7 -11 -12
0 -5 -6 -8 -14 -8 -8 0 -15 -4 -15 -10 0 -5 -7 -10 -16 -10 -8 0 -12 -4 -9
-10 3 -5 2 -10 -4 -10 -6 0 -25 -14 -43 -32 -18 -18 -35 -32 -38 -33 -3 0 -4
-3 -3 -7 2 -5 -6 -8 -18 -8 -11 0 -17 -4 -14 -10 3 -5 -1 -10 -10 -10 -9 0
-14 -4 -11 -9 3 -4 -6 -13 -20 -20 -16 -7 -22 -16 -18 -24 4 -6 4 -9 -1 -5 -4
4 -14 0 -22 -10 -8 -9 -11 -11 -7 -3 5 9 3 12 -4 7 -7 -4 -12 -14 -12 -22 0
-8 -4 -13 -8 -10 -5 3 -14 -4 -22 -14 -8 -10 -17 -17 -22 -14 -4 3 -8 -2 -8
-10 0 -9 -4 -15 -9 -13 -5 1 -25 -15 -45 -37 -20 -21 -36 -36 -36 -33 0 4 -20
-14 -45 -39 -25 -24 -45 -43 -45 -40 0 2 -23 -18 -52 -45 -28 -27 -55 -49 -60
-49 -4 0 -8 -7 -8 -16 0 -8 -4 -12 -10 -9 -5 3 -10 -1 -10 -10 0 -9 -5 -13
-10 -10 -6 3 -13 -1 -16 -9 -3 -9 -10 -13 -15 -10 -5 3 -9 -1 -9 -9 0 -8 -11
-22 -25 -31 -29 -19 -38 -20 -30 -3 4 6 -1 3 -9 -7 -12 -15 -16 -16 -16 -5 0
9 -3 10 -8 3 -4 -6 -15 -10 -24 -9 -9 2 -22 -3 -28 -10 -6 -7 -20 -11 -30 -8
-11 3 -27 0 -35 -7 -9 -7 -15 -8 -15 -2 0 12 -26 10 -37 -3 -4 -4 -2 -5 6 0 9
5 12 4 8 -2 -4 -6 -18 -9 -32 -8 -14 2 -27 -1 -30 -5 -3 -5 -12 -7 -20 -3 -8
3 -15 0 -15 -6 0 -6 -5 -11 -11 -11 -5 0 -7 6 -3 13 4 6 -3 3 -16 -8 -14 -12
-20 -14 -15 -5 8 13 6 13 -8 2 -9 -8 -22 -10 -28 -6 -9 5 -10 2 -5 -12 6 -15
5 -16 -5 -7 -7 7 -18 9 -28 4 -9 -5 -24 -7 -34 -6 -9 2 -15 -1 -11 -6 3 -5 -5
-9 -18 -9 -13 0 -30 -6 -37 -12 -11 -10 -13 -10 -7 0 4 6 2 12 -3 12 -6 0 -11
-6 -11 -12 0 -7 -13 -14 -30 -15 -49 -3 -60 -6 -60 -15 0 -5 -5 -6 -10 -3 -6
3 -16 0 -24 -8 -8 -7 -30 -13 -50 -12 -19 1 -33 -2 -30 -6 3 -5 -9 -9 -25 -9
-23 0 -31 -5 -32 -17 0 -10 -3 -13 -5 -7 -5 12 -74 -5 -74 -18 0 -4 -9 -5 -20
-3 -13 3 -20 -2 -21 -13 0 -10 -3 -12 -6 -5 -3 9 -10 10 -22 3 -10 -5 -21 -6
-25 -3 -3 3 -6 1 -6 -6 0 -7 -4 -9 -10 -6 -5 3 -10 2 -10 -3 0 -5 -10 -9 -22
-8 -13 1 -26 -2 -29 -7 -3 -5 -12 -9 -20 -10 -8 -2 -20 -6 -26 -10 -7 -5 -13
-6 -13 -3 0 3 -16 -3 -35 -14 -24 -13 -35 -16 -35 -7 0 8 -2 9 -8 1 -7 -12
-52 -29 -64 -26 -5 1 -8 -2 -8 -7 0 -5 -7 -12 -16 -15 -15 -6 -15 -4 -3 11 11
14 9 13 -13 -2 -15 -11 -28 -23 -28 -27 0 -4 -7 -5 -15 -2 -9 4 -15 0 -15 -7
0 -11 -3 -11 -10 1 -7 11 -10 11 -10 2 0 -7 -4 -11 -9 -7 -5 3 -12 1 -16 -5
-3 -5 -15 -10 -25 -10 -10 0 -22 -5 -26 -12 -5 -7 -3 -8 6 -3 9 6 11 4 5 -4
-5 -9 -10 -10 -18 -2 -14 14 -30 14 -22 1 3 -5 -12 -12 -34 -16 -22 -4 -46
-12 -52 -20 -6 -7 -17 -10 -25 -7 -8 3 -14 1 -14 -4 0 -6 -18 -16 -40 -23 -22
-7 -40 -16 -40 -20 0 -4 -7 -7 -15 -8 -8 -1 -22 -3 -30 -4 -8 -1 -15 -5 -15
-10 0 -5 -4 -6 -10 -3 -5 3 -10 1 -10 -5 0 -6 -4 -9 -9 -5 -5 3 -12 1 -16 -5
-4 -6 -11 -8 -16 -5 -5 4 -9 1 -9 -6 0 -7 -3 -10 -6 -7 -3 4 -17 0 -31 -7 -15
-8 -31 -11 -37 -8 -6 3 -8 3 -4 -2 8 -9 -36 -35 -58 -35 -8 0 -14 -5 -14 -11
0 -8 -4 -8 -14 0 -12 10 -17 8 -26 -9 -6 -12 -14 -19 -18 -16 -3 3 -16 -1 -29
-9 -17 -12 -23 -12 -24 -3 0 7 -5 2 -10 -12 -8 -18 -12 -21 -18 -11 -5 8 -10
9 -12 3 -2 -6 -11 -12 -19 -14 -8 -2 -21 -10 -28 -18 -12 -13 -13 -13 -6 0 5
11 1 10 -13 -3 -16 -14 -22 -15 -26 -5 -4 8 -6 7 -6 -4 -1 -16 -9 -19 -36 -18
-3 1 -13 -6 -21 -15 -9 -8 -20 -13 -25 -10 -5 4 -9 1 -9 -6 0 -6 -8 -9 -20 -6
-11 3 -18 2 -15 -3 3 -4 -6 -10 -20 -12 -18 -4 -25 -1 -25 11 0 13 -2 13 -9 2
-5 -8 -11 -9 -15 -3 -3 5 -17 8 -31 7 -14 -2 -25 0 -25 4 0 3 -19 5 -41 3 -32
-3 -40 -1 -34 8 6 9 4 11 -6 5 -19 -12 -60 -15 -54 -4 3 5 -1 6 -9 3 -9 -3
-13 -11 -9 -18 4 -6 -1 -5 -10 3 -13 10 -17 10 -17 1 0 -9 -3 -10 -13 -1 -10
8 -17 7 -26 -2 -9 -9 -14 -9 -21 3 -5 8 -10 10 -10 4 0 -5 -19 -11 -42 -11
-24 -1 -43 -2 -43 -3 0 -1 -10 -3 -23 -6 -17 -3 -21 0 -16 8 4 7 -2 5 -14 -6
-19 -16 -24 -17 -39 -5 -11 9 -14 10 -9 2 4 -8 1 -13 -8 -13 -29 0 -17 17 26
36 23 10 46 20 50 20 4 1 11 3 16 4 4 1 11 2 15 1 5 -1 6 3 3 8 -7 11 22 24
35 15 5 -3 9 0 9 6 0 7 7 9 16 6 10 -4 13 -2 8 6 -5 8 -2 9 10 5 10 -4 19 -1
22 8 4 8 10 12 15 9 5 -3 9 0 9 6 0 6 5 8 10 5 6 -3 10 -1 10 4 0 6 7 11 16
11 9 0 23 8 31 18 8 9 11 11 8 3 -5 -9 1 -8 19 4 14 10 26 13 26 9 0 -5 5 -1
11 10 9 15 13 16 20 5 7 -11 9 -10 9 3 0 11 5 15 15 12 8 -4 15 -1 15 6 0 7 7
10 16 6 8 -3 12 -2 9 3 -5 9 19 21 38 20 5 0 14 7 20 15 7 9 23 18 37 21 14 3
26 9 28 15 2 5 12 10 22 10 11 0 24 8 29 18 6 9 11 13 11 8 0 -5 7 -3 15 4 8
6 19 9 24 6 5 -4 13 -1 17 5 4 8 3 9 -4 5 -7 -4 -12 -5 -12 -1 0 7 52 29 63
27 4 -1 7 3 7 8 0 6 7 10 15 10 8 0 15 5 15 11 0 5 5 7 10 4 6 -3 10 -1 10 5
0 6 5 8 10 5 6 -3 10 -1 10 5 0 6 4 9 9 6 5 -3 21 6 35 19 15 14 32 22 38 19
7 -4 8 -2 4 4 -7 11 7 17 29 12 5 -1 7 2 3 6 -8 8 32 41 44 37 4 -2 4 5 1 14
-4 11 -3 14 5 9 7 -4 12 -1 12 8 0 9 4 16 10 16 5 0 6 7 3 17 -5 12 -3 14 8 8
11 -7 11 -5 -1 10 -9 11 -10 16 -2 11 6 -4 12 -2 12 3 0 6 -4 11 -10 11 -5 0
-9 3 -9 8 4 24 -3 33 -21 27 -14 -4 -20 -2 -18 7 2 7 -3 12 -9 11 -7 -2 -13 1
-13 5 0 9 -7 11 -57 15 -18 1 -33 5 -33 8 0 3 -12 5 -26 3 -15 -1 -38 2 -51 7
-13 5 -22 5 -19 0 7 -11 -52 -7 -62 4 -4 5 -1 5 7 0 10 -6 12 -4 6 5 -6 10
-11 10 -20 -3 -7 -9 -15 -14 -19 -10 -10 10 -37 13 -31 3 6 -9 -47 -6 -63 4
-7 4 -12 2 -12 -5 0 -8 -5 -7 -17 2 -11 10 -14 10 -9 2 4 -7 3 -13 -3 -13 -5
0 -12 6 -14 13 -4 10 -6 10 -6 0 -1 -7 -8 -13 -16 -13 -8 0 -15 6 -15 13 0 8
-3 9 -8 1 -4 -6 -24 -10 -44 -10 -20 1 -35 -1 -33 -5 2 -3 -20 -4 -50 -3 -30
1 -53 -2 -50 -6 6 -9 -42 -3 -58 7 -6 4 -7 1 -2 -7 6 -10 4 -12 -8 -7 -10 4
-17 1 -17 -6 0 -9 -2 -9 -8 0 -6 9 -17 10 -39 4 -21 -6 -35 -5 -43 2 -10 9
-11 9 -5 -2 6 -11 3 -13 -13 -9 -12 4 -22 3 -22 -2 0 -4 -12 -5 -26 -2 -20 4
-25 2 -19 -8 6 -9 3 -10 -12 -1 -11 6 -23 8 -26 5 -3 -3 -22 -7 -42 -10 -41
-5 -70 -27 -62 -49 3 -7 1 -15 -5 -17 -6 -2 0 -15 13 -29 19 -20 34 -25 74
-26 28 0 53 5 57 11 5 8 8 7 8 -1 0 -7 5 -13 11 -13 5 0 8 4 5 8 -3 4 8 7 25
6 16 -1 32 2 35 8 3 5 15 2 27 -9 11 -10 17 -12 12 -4 -6 11 -2 13 19 9 14 -3
26 -2 26 1 0 3 28 6 63 5 34 0 67 3 74 8 7 5 14 4 18 -3 6 -8 10 -7 16 2 7 12
9 12 9 0 0 -11 3 -11 15 -1 12 10 15 10 15 -1 0 -9 3 -10 8 -4 11 15 32 17 32
2 0 -8 4 -7 10 3 9 13 10 13 10 0 0 -13 1 -13 10 0 9 13 11 13 20 0 6 -10 10
-11 10 -2 0 6 8 12 18 12 10 0 24 -6 31 -12 10 -11 11 -10 6 4 -5 13 -2 15 17
11 13 -3 29 -10 36 -16 9 -7 11 -6 7 5 -5 12 1 14 37 9 24 -4 62 -4 86 -1 24
4 45 3 48 -1 5 -8 -67 -55 -78 -51 -5 1 -8 -3 -8 -9 0 -6 -9 -9 -19 -6 -13 3
-18 0 -15 -8 3 -7 0 -16 -7 -21 -8 -5 -10 -3 -4 5 9 15 -35 -8 -47 -24 -5 -6
-8 -6 -8 -1 0 6 -6 1 -14 -9 -8 -11 -19 -16 -30 -12 -10 4 -16 1 -16 -8 0 -9
-8 -12 -20 -10 -11 2 -18 0 -15 -4 5 -9 -23 -26 -37 -23 -5 1 -8 -3 -8 -9 0
-6 -9 -9 -20 -6 -11 3 -18 2 -15 -3 7 -11 -24 -22 -37 -13 -6 3 -9 2 -6 -3 7
-10 -11 -27 -32 -32 -8 -2 -17 -8 -18 -13 -2 -6 -11 -4 -20 3 -10 8 -13 8 -9
1 8 -13 -90 -66 -106 -56 -6 3 -7 1 -3 -5 4 -7 1 -12 -8 -12 -9 0 -16 -4 -16
-10 0 -5 -3 -10 -7 -9 -16 2 -53 -14 -53 -22 0 -5 -9 -9 -21 -9 -13 0 -18 -4
-13 -12 5 -7 3 -8 -5 -4 -7 5 -18 0 -26 -10 -11 -15 -14 -16 -15 -4 -1 13 -2
13 -13 0 -7 -8 -19 -16 -27 -18 -8 -2 -17 -7 -20 -10 -3 -4 -14 -9 -25 -10
-11 -2 -23 -8 -26 -14 -3 -5 -10 -10 -15 -11 -5 -1 -8 -4 -7 -7 1 -3 -11 -6
-25 -7 -15 0 -28 -6 -30 -12 -2 -6 -13 -11 -23 -11 -12 0 -17 -4 -13 -11 4 -8
-1 -9 -17 -4 -13 4 -21 4 -17 0 10 -10 -53 -42 -70 -37 -9 3 -5 10 12 22 15 9
23 20 19 23 -3 4 -1 7 5 7 7 0 11 6 9 13 -1 6 6 11 15 11 10 -1 17 1 16 5 -2
22 4 41 12 36 6 -3 10 3 10 14 0 11 5 23 12 27 7 5 8 2 3 -7 -5 -8 -4 -11 1
-6 10 10 14 78 3 72 -4 -3 -10 2 -13 11 -4 9 -13 14 -21 10 -9 -3 -15 0 -15
10 0 14 -2 14 -16 0 -8 -9 -22 -16 -30 -16 -8 0 -12 -4 -9 -10 3 -5 -1 -10 -9
-10 -9 0 -15 -6 -13 -12 1 -7 -3 -12 -10 -11 -7 2 -10 -4 -6 -13 3 -9 0 -14
-8 -12 -9 2 -13 -4 -11 -15 2 -9 -1 -17 -5 -16 -20 3 -34 -2 -28 -10 3 -6 -4
-15 -15 -21 -11 -6 -18 -15 -15 -21 4 -5 -1 -9 -9 -9 -9 0 -16 -4 -16 -9 0 -6
-20 -30 -44 -55 -24 -24 -41 -48 -38 -52 4 -5 -2 -2 -12 6 -13 10 -17 10 -12
3 4 -7 3 -13 -3 -13 -5 0 -13 -9 -16 -20 -4 -11 -11 -18 -16 -15 -5 4 -9 1 -9
-5 0 -6 -5 -8 -12 -4 -6 4 -8 3 -5 -3 8 -13 -50 -66 -63 -58 -6 4 -10 3 -9 -2
4 -21 -2 -33 -16 -33 -9 0 -18 -7 -21 -15 -4 -8 -10 -13 -14 -10 -4 3 -11 -2
-14 -11 -4 -9 -9 -14 -12 -11 -3 2 -17 -6 -31 -19 -14 -13 -32 -24 -39 -24 -8
0 -14 -4 -14 -8 0 -11 -56 -43 -64 -35 -3 3 -6 1 -6 -5 0 -7 -7 -12 -15 -12
-8 0 -15 -4 -15 -10 0 -5 -9 -10 -20 -10 -11 0 -20 -5 -20 -11 0 -6 -9 -9 -20
-6 -11 3 -18 0 -17 -7 1 -6 -4 -10 -10 -9 -7 2 -13 -2 -13 -8 0 -5 -4 -8 -9
-4 -5 3 -12 1 -16 -5 -4 -6 -11 -8 -16 -5 -5 4 -9 1 -9 -5 0 -6 -4 -9 -9 -5
-5 3 -13 0 -16 -6 -4 -5 -13 -8 -21 -5 -8 3 -17 -1 -20 -9 -4 -8 -10 -12 -15
-9 -5 3 -7 11 -3 17 3 7 0 5 -8 -3 -15 -17 -32 -23 -71 -22 -18 1 -25 -3 -20
-11 4 -8 1 -7 -9 1 -12 9 -18 10 -23 2 -5 -8 -11 -8 -19 -1 -9 7 -16 7 -24 -1
-7 -7 -12 -8 -12 -2 0 5 -12 11 -27 12 -16 1 -29 7 -31 12 -2 6 -11 10 -20 10
-8 0 -13 3 -9 6 3 4 0 18 -7 33 -7 15 -10 37 -6 51 4 14 3 37 -1 53 -4 15 -4
25 1 22 4 -2 14 3 21 12 10 12 10 14 2 9 -7 -4 -13 -3 -13 3 0 5 4 12 10 16 5
3 7 12 4 19 -3 8 -1 17 5 21 6 3 11 15 11 26 0 11 6 22 14 25 7 3 12 16 10 30
-1 13 1 22 6 19 4 -2 10 9 14 26 4 20 10 28 17 23 8 -4 9 -3 5 5 -4 6 3 25 15
43 13 17 16 28 8 23 -9 -5 -8 -1 4 12 9 11 14 23 10 28 -5 4 0 5 10 2 10 -4
16 -3 12 2 -8 15 6 42 19 34 6 -3 8 -3 4 2 -4 4 2 21 14 38 13 19 16 28 7 23
-7 -4 -5 0 6 9 11 9 19 19 17 23 -1 4 4 14 11 22 7 8 15 19 17 25 3 5 8 9 12
8 5 -2 7 0 6 5 -4 15 14 52 23 46 5 -3 9 -2 8 3 -3 19 2 34 10 29 5 -3 8 2 7
12 0 9 4 16 11 15 7 -2 10 4 7 12 -4 8 -1 15 6 15 6 0 9 4 6 9 -3 5 1 11 9 15
8 3 15 11 15 17 0 7 8 18 18 26 10 8 11 11 2 7 -13 -7 -13 -5 -1 9 7 9 17 14
22 11 5 -3 6 1 3 9 -3 8 5 19 18 26 13 6 15 9 6 7 -15 -5 -16 -2 -6 14 9 14
15 16 21 7 5 -7 7 3 3 26 -3 26 -1 35 6 31 7 -4 8 -2 4 4 -4 7 -14 12 -22 12
-8 0 -14 4 -14 9 0 5 -12 12 -26 15 -21 6 -32 0 -65 -36 -21 -24 -39 -48 -39
-54 0 -7 -7 -15 -16 -18 -8 -3 -13 -10 -9 -15 3 -5 -3 -16 -13 -23 -11 -7 -21
-17 -23 -23 -2 -5 -8 -9 -12 -7 -5 1 -6 -2 -2 -8 3 -5 1 -10 -4 -10 -6 0 -10
-6 -8 -12 1 -7 -5 -12 -13 -10 -8 2 -12 0 -8 -3 4 -4 2 -17 -4 -29 -7 -11 -11
-25 -10 -30 2 -5 -4 -6 -12 -3 -10 4 -14 0 -11 -13 2 -11 -1 -19 -8 -17 -6 1
-11 -3 -12 -10 0 -7 -6 -18 -12 -25 -7 -6 -13 -18 -13 -26 0 -7 -4 -10 -10 -7
-6 3 -7 -1 -4 -9 4 -10 1 -16 -10 -16 -10 0 -13 -6 -10 -15 4 -8 1 -15 -7 -15
-7 0 -10 -3 -6 -6 3 -4 -1 -13 -9 -21 -8 -8 -11 -19 -8 -25 4 -6 2 -8 -3 -5
-6 4 -14 0 -17 -9 -3 -8 -10 -13 -15 -10 -5 3 -8 0 -7 -7 0 -6 -2 -13 -7 -14
-4 -2 -18 -14 -32 -29 -13 -14 -28 -23 -34 -20 -6 4 -8 -2 -6 -13 3 -15 0 -18
-12 -14 -11 4 -14 2 -9 -5 4 -7 1 -12 -7 -12 -8 0 -22 -9 -32 -20 -10 -12 -24
-19 -31 -16 -8 3 -11 0 -8 -9 4 -8 -8 -20 -30 -30 -20 -10 -36 -22 -36 -27 0
-5 -4 -6 -10 -3 -5 3 -10 1 -10 -5 0 -6 -4 -9 -9 -6 -5 3 -12 -1 -15 -10 -4
-10 -12 -14 -22 -10 -14 5 -15 4 -5 -8 11 -13 9 -15 -7 -11 -12 2 -23 -3 -26
-12 -4 -9 -13 -13 -22 -9 -8 3 -13 2 -9 -3 3 -5 -8 -15 -25 -23 -16 -7 -30
-16 -30 -20 0 -5 -7 -8 -15 -8 -9 0 -18 -6 -21 -14 -3 -8 -11 -13 -18 -10 -6
2 -22 -5 -34 -16 -12 -11 -22 -17 -22 -13 0 4 -4 4 -8 -2 -11 -15 -50 -35 -67
-35 -9 0 -13 -4 -10 -10 3 -5 -3 -10 -14 -10 -11 0 -23 -5 -26 -10 -4 -6 -11
-8 -16 -5 -5 4 -9 2 -9 -3 0 -9 -53 -35 -75 -36 -5 -1 -14 -6 -20 -13 -5 -6
-23 -13 -40 -15 -16 -1 -33 -7 -36 -12 -4 -5 -17 -9 -30 -10 -13 -1 -23 -7
-22 -12 1 -6 -10 -10 -25 -8 -15 1 -29 -1 -32 -6 -3 -5 -21 -10 -40 -11 -19
-2 -41 -7 -47 -12 -9 -6 -13 -6 -13 2 0 6 -9 11 -21 11 -14 0 -18 -4 -12 -12
4 -7 -7 -2 -24 12 -20 16 -30 32 -28 45 1 11 -3 26 -9 34 -8 11 -8 13 0 8 10
-6 25 30 28 68 1 6 8 16 16 23 12 11 12 12 1 6 -9 -4 -4 7 9 26 13 18 18 30
11 26 -10 -6 -10 -3 1 13 7 12 16 21 21 21 4 0 5 4 2 10 -3 6 -1 10 5 10 6 0
8 5 5 10 -3 6 1 13 9 16 9 3 13 10 10 15 -3 5 2 12 10 15 9 3 13 10 10 15 -3
5 0 9 6 9 6 0 8 4 5 10 -3 6 -1 10 5 10 6 0 8 5 5 10 -3 6 0 10 8 10 8 0 18 7
21 16 6 15 4 15 -11 3 -15 -12 -15 -11 1 8 10 13 23 20 27 17 5 -3 6 2 3 10
-3 9 -1 16 4 16 6 0 14 9 17 20 4 11 11 17 17 14 7 -4 8 -2 4 4 -4 7 5 24 21
39 15 14 21 23 13 19 -10 -5 -10 -3 2 6 11 9 14 19 8 28 -5 8 -6 18 -4 22 3 4
0 8 -6 8 -6 0 -9 4 -6 9 8 12 -18 44 -38 47 -9 1 -13 -2 -9 -9 4 -6 0 -8 -10
-4 -10 3 -17 2 -17 -4 0 -6 -4 -8 -9 -4 -5 3 -12 1 -16 -5 -4 -6 -11 -8 -16
-5 -5 4 -9 1 -9 -5 0 -7 -7 -9 -16 -6 -8 3 -12 2 -9 -4 3 -6 -3 -10 -15 -10
-11 0 -23 -7 -26 -15 -4 -8 -10 -12 -15 -9 -6 3 -15 1 -22 -4 -7 -6 -21 -12
-32 -14 -11 -1 -22 -6 -25 -10 -3 -3 -14 -8 -25 -10 -11 -1 -26 -9 -33 -15 -7
-7 -22 -13 -33 -13 -11 0 -18 -4 -15 -8 3 -5 -8 -8 -24 -7 -16 1 -27 -2 -24
-7 5 -7 -13 -12 -43 -11 -7 1 -11 -3 -8 -7 6 -10 -24 -22 -36 -14 -5 3 -9 0
-9 -6 0 -6 -4 -8 -10 -5 -5 3 -10 2 -10 -4 0 -6 -6 -8 -14 -5 -8 3 -17 1 -20
-5 -4 -6 -14 -7 -23 -4 -11 4 -14 3 -9 -5 4 -8 0 -12 -11 -12 -11 0 -25 -6
-32 -12 -11 -11 -12 -10 -6 0 6 12 4 12 -16 1 -13 -8 -31 -15 -39 -16 -31 -4
-59 -12 -81 -23 -14 -8 -19 -8 -15 -1 5 7 1 9 -8 5 -9 -3 -16 -9 -16 -13 0 -3
-12 -7 -28 -7 -15 -1 -37 -4 -50 -7 -13 -4 -22 -1 -22 6 0 8 -3 8 -9 -1 -4 -8
-17 -13 -27 -12 -11 1 -21 1 -24 0 -22 -8 -60 -9 -65 0 -4 6 -12 7 -24 1 -13
-7 -22 -5 -34 9 -16 19 -19 60 -4 60 4 0 6 4 2 9 -3 5 1 16 9 24 8 8 12 17 9
21 -4 3 1 6 9 6 9 0 15 8 14 18 0 9 5 16 12 14 8 -1 11 2 7 8 -3 5 -1 10 4 10
6 0 10 3 10 8 -3 17 1 35 7 29 8 -8 28 12 37 36 4 11 16 21 27 24 11 3 18 8
15 12 -2 4 10 16 27 26 18 10 28 13 23 5 -6 -9 -4 -11 6 -4 8 4 39 9 69 11 30
1 85 4 122 7 48 2 66 0 62 -8 -3 -6 2 -2 11 9 13 17 17 18 25 6 6 -10 12 -12
22 -5 7 6 25 10 40 9 16 0 28 3 28 7 0 4 6 7 12 6 7 -2 12 3 10 10 -1 6 3 12
9 12 5 0 7 5 4 10 -4 6 -1 18 7 27 9 12 9 15 1 9 -9 -5 -13 0 -13 16 0 18 -2
20 -10 8 -8 -12 -10 -12 -10 -1 0 8 -3 11 -7 8 -3 -4 -12 1 -19 11 -9 11 -13
12 -14 4 0 -8 -9 -11 -27 -8 -15 3 -34 0 -42 -7 -12 -10 -13 -9 -6 3 8 13 7
13 -8 1 -12 -9 -17 -10 -17 -2 0 7 -5 9 -12 4 -7 -4 -24 -9 -36 -11 -17 -2
-22 1 -16 10 5 10 4 11 -7 1 -18 -17 -36 -16 -36 2 0 11 4 12 14 3 11 -9 12
-7 6 7 -5 15 -3 17 11 12 11 -4 15 -3 11 4 -4 6 2 13 14 16 12 3 21 10 21 15
0 5 5 6 10 3 6 -3 10 -1 10 4 0 6 7 11 15 11 8 0 15 5 15 12 0 6 3 8 7 5 3 -4
18 3 31 15 14 13 21 16 17 8 -5 -8 4 -5 19 8 16 12 32 19 37 16 5 -3 9 0 9 6
0 7 7 9 16 6 8 -3 12 -2 9 4 -3 6 1 10 9 10 9 0 16 5 16 11 0 8 6 7 17 -2 11
-10 14 -10 9 -1 -4 6 -2 13 3 13 6 1 16 3 21 4 6 1 15 3 21 4 5 0 8 5 5 9 -3
4 8 7 25 6 16 -1 26 2 23 7 -3 5 12 9 33 9 22 0 44 5 51 12 9 9 12 9 12 -1 0
-10 3 -11 13 -2 8 6 17 8 20 4 4 -3 7 0 7 8 0 12 2 12 9 0 6 -9 27 -15 53 -15
24 -1 48 -4 55 -9 6 -4 14 -1 16 5 3 8 6 6 6 -5 1 -11 7 -17 19 -15 9 2 16 -3
14 -9 -1 -7 5 -13 14 -13 9 0 31 -16 50 -35 18 -19 31 -35 27 -35 -4 0 2 -7
13 -16 10 -8 12 -12 4 -8 -10 5 -9 0 4 -14 11 -12 15 -22 11 -22 -4 0 3 -9 16
-21 13 -12 23 -25 22 -29 -1 -4 6 -6 17 -3 11 3 17 10 14 15 -4 6 4 5 16 -2
12 -7 20 -8 16 -2 -3 5 0 12 8 15 15 6 13 86 -2 96 -5 3 -8 14 -7 23 2 11 -2
15 -13 11 -11 -5 -14 -2 -9 9 3 10 0 19 -9 22 -8 3 -14 12 -14 21 0 8 -6 15
-14 15 -8 0 -18 5 -22 12 -5 7 -3 8 5 3 9 -5 9 -1 -1 14 -14 22 -34 30 -23 9
4 -7 -7 1 -23 19 -17 17 -33 29 -37 25 -3 -4 -9 -1 -13 5 -7 11 -45 23 -79 25
-7 1 -13 5 -13 8 0 4 -45 7 -99 6 -64 -1 -97 3 -93 9 3 6 -1 5 -9 -2 -8 -7
-31 -14 -50 -16 -19 -2 -39 -6 -45 -10 -6 -3 -26 -9 -45 -12 -18 -3 -36 -9
-39 -13 -5 -7 -27 -14 -47 -15 -7 0 -13 -4 -13 -9 0 -4 -3 -7 -7 -6 -14 3 -83
-35 -83 -46 0 -6 -5 -4 -10 4 -7 11 -10 11 -10 2 0 -7 -4 -10 -10 -7 -5 3 -10
1 -10 -4 0 -6 -6 -10 -12 -9 -7 2 -12 -3 -10 -9 2 -11 -9 -15 -34 -12 -3 0
-12 -8 -20 -18 -7 -10 -14 -14 -14 -10 0 5 -7 1 -16 -7 -8 -9 -20 -14 -25 -11
-5 4 -9 1 -9 -4 0 -6 -7 -11 -16 -11 -9 0 -12 -5 -8 -12 5 -8 2 -9 -12 -4 -10
4 -15 4 -11 0 8 -8 -34 -40 -47 -36 -5 2 -6 -4 -3 -12 4 -10 1 -13 -9 -9 -7 3
-14 0 -14 -6 0 -6 -7 -11 -15 -11 -8 0 -19 -9 -25 -20 -6 -11 -17 -20 -25 -20
-8 0 -15 -7 -15 -15 0 -9 -6 -12 -15 -9 -8 4 -15 2 -15 -3 0 -12 -30 -10 -49
2 -10 5 -12 4 -7 -3 5 -9 -11 -12 -56 -13 -91 -2 -102 -3 -115 -12 -8 -5 -13
-3 -13 5 0 9 -3 9 -10 -2 -9 -13 -10 -13 -10 0 0 12 -2 13 -9 1 -7 -10 -10
-10 -13 -1 -3 9 -9 8 -21 -4 -16 -16 -17 -16 -17 1 0 15 -2 16 -10 3 -5 -8
-12 -12 -15 -8 -4 3 -20 2 -36 -2 -20 -6 -29 -5 -29 3 0 8 -3 9 -8 1 -4 -6
-23 -10 -42 -8 -19 1 -41 -2 -47 -8 -9 -8 -13 -7 -13 3 0 11 -2 11 -10 -1 -8
-13 -10 -13 -10 0 0 11 -3 11 -12 2 -16 -16 -31 -15 -22 1 5 8 2 8 -9 -2 -14
-11 -17 -11 -17 0 0 10 -2 11 -8 2 -4 -6 -38 -13 -77 -15 -39 -2 -77 -8 -84
-12 -10 -7 -12 -5 -6 5 8 12 6 12 -8 0 -14 -11 -17 -11 -17 0 0 10 -3 10 -8 3
-4 -6 -22 -10 -40 -9 -17 1 -32 0 -32 -4 0 -3 -24 -5 -52 -5 -29 1 -61 -3 -72
-8 -10 -6 -16 -6 -13 -1 3 5 -3 9 -13 9 -10 0 -17 -4 -14 -8 7 -11 -40 -5 -48
7 -5 6 -8 4 -8 -5 0 -12 -11 -15 -51 -13 -36 2 -48 0 -43 -8 5 -8 3 -9 -7 -4
-19 12 -49 14 -55 3 -3 -4 -10 -8 -15 -8 -6 0 -7 6 -3 13 5 8 3 8 -9 -2 -9 -7
-26 -11 -37 -8 -11 3 -20 2 -20 -2 0 -4 -10 -7 -23 -6 -26 3 -24 23 4 43 11 7
17 17 14 22 -3 5 3 18 14 29 11 11 17 22 14 25 -4 3 -1 6 5 6 6 0 14 9 17 20
4 11 11 17 17 14 7 -5 9 -1 5 9 -3 10 -2 17 4 17 6 0 7 5 4 10 -4 6 -3 9 2 8
4 -2 9 0 10 5 5 16 28 35 37 29 5 -3 6 0 3 5 -4 6 2 21 13 33 11 13 20 27 20
32 0 5 5 6 10 3 6 -3 10 1 10 11 0 9 9 25 21 35 11 10 18 22 15 27 -6 9 21 27
36 24 4 -1 5 5 2 13 -4 8 -1 15 7 15 7 0 9 3 6 7 -4 3 2 13 13 20 11 8 18 19
15 24 -4 5 -1 9 5 9 6 0 8 5 4 12 -4 6 -3 8 3 5 6 -4 17 1 24 10 12 14 12 16
-1 8 -8 -4 -5 3 7 16 68 73 83 91 83 100 0 5 4 9 8 9 4 0 16 15 26 33 10 17
32 44 48 59 16 15 29 29 29 32 -1 3 2 7 7 7 4 1 15 14 24 29 24 41 51 70 59
65 4 -3 6 3 5 13 0 9 5 16 12 14 6 -1 11 4 10 10 -2 7 3 12 10 10 6 -1 11 2
10 7 -2 5 9 23 25 40 15 17 24 31 20 31 -5 1 2 6 14 13 12 7 23 17 25 22 1 6
13 19 25 31 12 12 19 25 15 29 -4 5 1 5 10 2 13 -4 15 -2 11 10 -4 11 -2 14 5
9 11 -7 17 6 13 28 -1 5 5 6 14 3 9 -4 15 -1 15 8 0 8 9 19 20 25 11 6 19 14
16 18 -5 9 20 32 28 25 3 -4 6 1 6 10 0 9 7 17 15 17 8 0 15 5 15 11 0 5 22
32 50 58 27 26 50 53 50 58 0 12 69 73 82 73 4 0 7 6 6 13 -2 6 3 11 9 10 7
-2 15 8 19 22 3 14 11 22 17 18 6 -4 8 0 4 11 -4 9 -3 15 2 12 5 -3 11 0 14 8
3 8 17 13 36 11 17 -1 31 2 31 7 0 6 7 5 15 -2 12 -10 16 -9 21 4 3 9 10 13
15 10 5 -3 7 -10 4 -15 -3 -5 1 -6 9 -3 9 3 13 11 10 16 -4 6 2 5 14 -1 12 -6
23 -7 26 -3 2 4 28 8 55 8 40 -1 50 2 46 13 -4 10 -2 11 7 4 17 -14 49 -13 67
1 12 9 13 8 6 -4 -7 -13 -6 -13 7 -2 13 10 17 10 21 0 4 -10 6 -10 6 1 1 11 4
11 18 0 9 -8 14 -9 11 -4 -6 10 9 12 150 18 12 1 22 6 22 12 0 5 4 4 9 -4 6
-9 11 -10 15 -2 5 7 15 7 32 1 16 -7 23 -7 19 0 -4 6 12 9 39 7 25 -1 48 2 50
8 2 5 5 4 5 -3 1 -9 6 -10 19 -3 10 5 24 6 32 1 8 -5 22 -4 32 1 10 5 18 6 18
2 0 -4 5 -1 10 7 5 8 10 10 10 5 0 -6 9 -11 20 -11 11 0 20 3 20 6 0 3 9 6 20
7 12 1 18 -3 14 -9 -4 -7 0 -7 12 0 11 5 46 9 79 8 33 -1 64 0 70 3 5 3 27 4
48 2 21 -1 45 3 54 11 12 9 15 9 9 1 -9 -16 -1 -16 26 -2 15 8 19 8 13 0 -4
-8 2 -10 22 -6 62 13 103 14 97 2 -5 -8 -2 -8 7 1 16 15 33 16 23 0 -5 -7 -3
-8 7 -3 22 14 60 15 52 2 -5 -9 -3 -9 8 -1 8 6 41 11 75 11 33 0 65 3 71 6 6
4 14 1 17 -5 5 -10 7 -10 12 -1 3 7 12 9 20 6 21 -8 70 47 52 58 -9 6 -10 9
-1 9 7 0 10 7 7 15 -4 8 -10 15 -16 15 -5 0 -16 6 -23 14 -10 10 -25 11 -54 6
-27 -5 -42 -3 -45 4 -3 7 -5 6 -5 -2 -1 -10 -6 -10 -21 -2 -15 8 -20 8 -20 -2
0 -9 -3 -9 -10 2 -5 8 -10 10 -10 4 0 -13 -42 -13 -52 1 -5 6 -8 5 -8 -4 0
-10 -3 -11 -14 -2 -11 10 -17 8 -25 -6 -7 -12 -10 -13 -11 -4 0 8 -7 11 -19 8
-10 -2 -25 0 -34 4 -10 6 -18 5 -23 -2 -4 -7 -3 -9 4 -5 6 3 13 2 16 -3 5 -7
-22 -8 -31 -1 -9 7 -29 4 -36 -5 -6 -7 -10 -6 -14 2 -3 10 -10 10 -25 2 -16
-8 -19 -8 -13 1 6 9 3 9 -13 1 -26 -14 -35 -14 -26 0 4 8 1 8 -12 2 -11 -6
-49 -9 -87 -9 -37 1 -67 -2 -67 -6 0 -4 -13 -3 -30 2 -25 7 -30 6 -30 -8 0
-12 -3 -13 -8 -5 -7 12 -57 11 -69 -1 -4 -3 -15 2 -25 11 -17 15 -18 15 -13 1
7 -17 -9 -19 -32 -5 -6 4 -15 2 -19 -4 -4 -8 -9 -7 -15 2 -5 8 -9 9 -9 3 0 -7
-22 -11 -57 -10 -40 1 -62 -4 -71 -14 -8 -8 -11 -10 -8 -3 4 6 2 14 -4 18 -5
3 -10 -2 -10 -12 0 -12 -3 -14 -8 -6 -8 12 -29 13 -49 0 -6 -4 -15 -2 -19 4
-5 8 -3 9 6 4 9 -5 11 -4 6 4 -4 6 -12 9 -17 5 -5 -3 -7 -10 -3 -15 8 -13 -29
-7 -38 6 -5 6 -8 6 -8 -1 0 -6 -15 -10 -36 -9 -19 1 -37 -2 -40 -6 -2 -4 -18
-4 -34 1 -17 5 -28 5 -25 0 3 -4 -2 -11 -11 -14 -12 -5 -15 -2 -10 10 5 14 4
15 -9 4 -8 -7 -15 -9 -15 -4 0 4 -5 3 -12 -4 -8 -8 -17 -8 -31 -1 -14 8 -17 8
-13 0 5 -7 -3 -10 -24 -7 -17 2 -33 -1 -36 -5 -3 -5 -13 -5 -23 0 -10 6 -23 6
-31 1 -8 -5 -18 -6 -22 -4 -4 3 -8 -1 -8 -8 0 -10 -2 -10 -9 1 -6 9 -11 10
-15 2 -4 -6 -12 -11 -17 -11 -6 0 -7 6 -3 13 6 9 4 9 -7 2 -8 -6 -41 -12 -74
-14 -33 -1 -61 -6 -63 -12 -2 -5 -8 -9 -13 -9 -6 0 -8 4 -5 9 4 5 -2 8 -11 6
-10 -2 -18 -4 -18 -5 0 -1 -10 -3 -23 -6 -17 -3 -21 0 -16 8 4 7 -2 4 -14 -6
-14 -12 -22 -14 -22 -7 0 7 -5 9 -12 4 -13 -8 -34 -11 -113 -18 -22 -2 -40 -4
-40 -5 0 -1 -11 -3 -25 -4 -14 0 -31 -5 -39 -10 -11 -7 -12 -6 -6 5 7 11 6 12
-6 2 -12 -10 -18 -10 -29 0 -10 9 -11 9 -6 0 7 -13 -6 -15 -82 -16 -12 0 -22
-4 -22 -9 0 -4 -12 -8 -27 -8 -66 1 -103 -4 -103 -13 0 -5 -9 -7 -20 -4 -10 3
-21 0 -24 -7 -3 -7 -5 -7 -5 2 -1 10 -6 10 -21 2 -11 -6 -20 -8 -20 -4 0 3 -8
0 -17 -7 -15 -12 -16 -12 -8 1 7 12 6 13 -6 4 -8 -6 -21 -12 -29 -12 -8 -1
-31 -4 -50 -7 -19 -4 -49 -7 -67 -8 -17 -1 -29 -6 -26 -10 2 -4 -7 -6 -21 -3
-18 3 -24 1 -20 -6 5 -7 1 -9 -9 -5 -10 4 -17 1 -17 -6 0 -8 -4 -6 -10 3 -5 8
-10 10 -10 4 0 -6 -14 -10 -31 -9 -17 1 -33 -4 -36 -11 -2 -7 -11 -10 -19 -7
-8 3 -21 0 -28 -6 -11 -9 -15 -9 -19 1 -4 10 -7 10 -14 1 -5 -7 -24 -14 -43
-16 -19 -2 -43 -8 -52 -12 -9 -4 -22 -3 -29 1 -8 5 -9 3 -4 -5 5 -9 1 -12 -11
-10 -11 1 -27 -1 -37 -6 -10 -4 -31 -8 -46 -9 -16 0 -27 -4 -25 -7 2 -4 -3
-10 -12 -13 -9 -4 -13 -2 -8 5 4 8 0 8 -14 0 -12 -6 -27 -10 -34 -9 -7 2 -12
-2 -11 -7 1 -6 -8 -12 -20 -12 -17 -2 -19 0 -7 7 8 5 10 10 4 10 -6 0 -17 -7
-24 -15 -11 -13 -15 -13 -21 -3 -7 10 -9 10 -9 1 0 -7 -9 -13 -19 -13 -11 0
-23 -5 -26 -11 -4 -6 -13 -8 -21 -5 -8 3 -14 2 -14 -2 0 -4 -12 -9 -27 -10
-15 -1 -29 -6 -32 -11 -3 -4 -16 -7 -29 -6 -13 1 -22 -4 -22 -12 0 -8 -5 -11
-10 -8 -6 4 -17 1 -25 -5 -12 -10 -15 -10 -15 -1 0 8 -6 7 -16 -3 -8 -9 -20
-14 -25 -11 -5 4 -9 1 -9 -5 0 -6 -4 -8 -10 -5 -5 3 -10 1 -10 -5 0 -6 -5 -8
-12 -4 -6 4 -16 0 -23 -9 -7 -10 -24 -18 -39 -19 -14 -1 -26 -6 -26 -11 0 -4
-5 -5 -10 -2 -6 3 -10 2 -10 -4 0 -6 -7 -8 -15 -4 -10 3 -15 0 -13 -8 2 -8 -4
-13 -14 -11 -9 1 -23 -6 -30 -17 -8 -11 -26 -23 -41 -26 -14 -4 -29 -16 -32
-26 -4 -11 -9 -17 -13 -15 -4 2 -13 -2 -20 -10 -7 -8 -9 -14 -5 -14 4 0 1 -6
-7 -13 -9 -7 -17 -25 -18 -41 -1 -17 -8 -33 -15 -38 -9 -6 -9 -8 1 -8 7 0 10
-4 7 -10 -3 -5 -2 -10 3 -10 6 0 8 -10 5 -22 -4 -19 -3 -20 6 -8 9 13 11 13
11 -1 0 -15 22 -32 36 -26 3 1 9 -5 14 -14 7 -11 21 -15 50 -12 31 2 39 0 34
-9 -6 -10 -4 -10 7 -3 17 12 39 13 58 1 10 -7 12 -5 6 3 -9 16 42 12 64 -4 12
-8 13 -7 7 4 -7 11 -1 13 28 9 20 -2 36 -1 36 3 0 3 14 5 31 3 16 -2 28 0 25
4 -3 5 19 8 48 8 30 -1 52 2 50 5 -2 4 3 10 12 13 10 4 13 2 8 -7 -5 -9 -4 -9
7 1 7 6 26 12 41 12 16 0 28 6 28 13 0 8 4 7 10 -3 5 -8 10 -10 10 -5 0 6 8
12 18 13 34 4 52 8 58 15 12 12 26 8 19 -5 -4 -7 -1 -6 7 3 7 8 23 16 36 17
54 5 62 7 62 15 0 5 6 7 14 4 8 -3 17 -3 20 1 8 7 35 13 59 13 9 0 17 5 17 11
0 5 7 8 15 5 8 -4 17 -2 20 3 4 6 11 10 16 10 6 0 7 -6 3 -12 -5 -9 -3 -9 9 1
9 7 15 16 13 20 -3 4 8 6 25 5 16 -1 29 3 29 9 0 7 5 5 10 -3 6 -10 10 -11 10
-2 0 6 9 12 20 12 11 0 20 6 20 13 0 9 2 9 9 -1 6 -11 10 -10 15 4 5 13 9 15
18 6 9 -9 16 -8 30 5 14 13 18 13 18 2 1 -10 3 -9 10 3 6 10 19 15 30 13 11
-2 20 1 20 6 0 6 5 7 10 4 6 -3 10 -1 10 5 0 6 4 8 10 5 5 -3 22 1 38 9 16 8
32 12 36 9 3 -4 6 0 6 8 0 11 2 11 10 -1 7 -11 10 -11 10 -2 0 7 4 11 9 7 5
-3 12 -1 16 5 4 6 11 8 16 5 5 -4 9 -1 9 5 0 6 4 9 9 5 5 -3 12 -1 15 4 4 5
18 7 32 5 19 -3 25 -1 22 8 -4 9 5 13 31 13 23 0 43 7 56 20 11 12 16 14 10 5
-9 -13 -8 -13 8 -1 9 7 17 22 17 33 0 12 5 17 13 13 6 -4 1 3 -13 14 -18 16
-20 19 -6 15 18 -7 18 -6 1 14 -10 11 -24 18 -30 15 -7 -2 -16 1 -20 7 -5 8
-11 8 -21 -1 -8 -6 -14 -8 -14 -4 0 4 -8 1 -17 -6 -11 -9 -14 -10 -9 -2 5 9 2
11 -8 7 -9 -3 -16 -10 -16 -14 0 -5 -8 -7 -17 -5 -10 1 -29 -4 -42 -12 -14 -9
-21 -10 -16 -3 4 7 -5 4 -21 -6 -15 -11 -25 -14 -22 -8 4 6 1 11 -7 11 -8 0
-12 -4 -9 -8 2 -4 -11 -11 -31 -15 -22 -4 -32 -10 -28 -18 4 -6 0 -5 -9 2 -12
9 -18 10 -23 2 -4 -6 -13 -9 -21 -6 -8 3 -14 1 -14 -5 0 -6 -5 -7 -10 -4 -6 3
-10 2 -10 -3 0 -8 -6 -10 -50 -14 -11 -1 -20 -6 -20 -11 0 -4 -4 -5 -10 -2 -5
3 -10 1 -10 -6 0 -9 -3 -9 -14 0 -11 9 -15 8 -20 -4 -3 -9 -11 -13 -17 -9 -6
3 -15 0 -20 -7 -7 -12 -9 -11 -9 1 0 10 -3 11 -8 3 -4 -6 -21 -13 -39 -16 -18
-3 -47 -12 -64 -21 -39 -19 -42 -20 -33 -3 6 9 4 9 -7 1 -13 -11 -70 -28 -94
-29 -5 0 -16 -7 -22 -15 -11 -13 -14 -13 -23 0 -5 9 -10 10 -10 3 0 -6 -11
-10 -25 -9 -13 2 -22 -1 -19 -5 5 -9 -5 -12 -38 -12 -10 0 -18 -4 -18 -10 0
-5 -8 -3 -17 4 -11 10 -14 10 -9 2 4 -8 1 -13 -8 -14 -9 -1 -20 -3 -26 -4 -5
-1 -17 -3 -26 -4 -9 -1 -12 -6 -8 -13 6 -10 4 -10 -8 0 -10 8 -19 9 -22 3 -3
-5 -14 -8 -24 -7 -9 2 -23 -4 -30 -13 -8 -10 -11 -10 -6 -2 6 11 3 13 -12 6
-10 -4 -33 -9 -51 -10 -18 -1 -38 -7 -46 -13 -10 -9 -16 -9 -25 0 -9 9 -12 9
-12 -1 0 -7 -4 -10 -9 -6 -5 3 -12 2 -15 -3 -2 -4 -17 -7 -33 -6 -15 0 -31 -4
-35 -10 -5 -7 -8 -6 -8 4 0 13 -1 13 -10 0 -7 -11 -10 -11 -10 -2 0 7 -4 10
-10 7 -23 -14 -69 -13 -74 2 -6 14 18 42 37 43 4 0 18 9 30 20 12 11 27 18 34
16 7 -3 13 -1 13 4 0 5 10 12 22 16 13 4 29 14 36 23 8 9 11 10 7 4 -3 -7 -1
-13 4 -13 6 0 11 5 11 12 0 6 3 9 6 5 3 -3 22 3 41 14 19 11 31 14 27 8 -4 -7
-2 -10 7 -7 8 3 13 11 11 18 -2 8 3 10 14 6 9 -3 23 -1 30 5 8 6 14 8 14 4 0
-4 7 -2 15 5 8 7 15 10 15 6 0 -4 10 0 23 8 12 7 30 12 39 11 10 -2 20 1 24 6
3 5 10 7 15 4 5 -4 9 -2 9 4 0 5 9 8 20 6 11 -2 20 0 20 6 0 5 9 9 19 9 11 0
23 5 26 10 5 8 11 7 21 -1 10 -8 14 -8 14 0 0 6 11 11 25 11 14 0 25 4 25 8 0
4 10 9 23 9 27 2 49 7 62 14 6 4 20 5 32 4 13 -1 19 3 16 8 -4 6 0 8 10 4 9
-3 19 -2 22 3 3 5 13 6 22 3 12 -5 14 -3 8 7 -5 9 -4 11 3 6 6 -4 21 -2 33 5
16 8 20 8 14 -1 -6 -9 -3 -9 12 -1 11 6 23 7 27 4 3 -3 6 0 6 7 0 7 3 10 7 7
3 -4 12 -2 20 4 10 9 13 8 13 -1 0 -9 4 -9 17 1 14 12 16 12 9 -1 -4 -8 0 -6
8 4 12 15 16 16 16 5 0 -9 3 -10 8 -3 4 6 23 13 42 17 55 8 64 11 72 22 5 6 8
5 8 -3 0 -9 5 -10 19 -3 10 6 21 7 25 4 3 -3 6 -2 6 3 0 5 9 10 19 10 11 0 18
-4 15 -7 -2 -4 0 -11 6 -14 6 -4 10 -3 9 2 -4 23 4 29 37 28 22 -1 38 4 41 12
3 7 9 10 14 7 5 -3 6 -11 2 -17 -4 -8 -1 -7 9 1 9 7 36 15 59 18 24 3 48 9 54
14 6 5 20 7 30 6 11 -2 28 1 39 6 14 8 17 7 11 -3 -6 -9 -3 -11 9 -6 10 4 22
7 27 7 6 0 7 6 3 13 -6 9 -4 9 8 -1 9 -7 19 -9 22 -4 3 5 23 8 46 8 22 -1 40
2 40 7 0 4 5 7 11 7 5 0 7 -4 4 -10 -3 -6 1 -7 9 -4 9 3 13 11 10 16 -4 6 2 5
14 -1 12 -6 23 -7 26 -2 3 4 17 7 31 6 14 -2 25 0 25 4 0 14 42 4 51 -12 8
-13 -8 -34 -71 -97 -44 -45 -80 -86 -80 -91 0 -5 -7 -9 -16 -9 -8 0 -12 -4 -9
-10 3 -5 1 -10 -5 -10 -6 0 -8 -4 -5 -10 6 -9 -7 -14 -27 -11 -4 0 -5 -6 -2
-13 3 -8 -3 -17 -14 -20 -11 -4 -22 -16 -25 -27 -3 -12 -10 -18 -16 -14 -6 3
-11 1 -11 -5 0 -6 -11 -23 -24 -37 -14 -15 -22 -31 -19 -36 3 -6 1 -7 -6 -3
-6 4 -14 0 -17 -8 -3 -9 -10 -13 -15 -10 -5 3 -9 2 -8 -3 4 -21 -2 -34 -13
-27 -8 5 -9 2 -5 -10 4 -9 3 -15 -1 -12 -10 6 -43 -30 -35 -38 4 -3 -2 -6 -12
-6 -10 0 -16 -3 -12 -6 3 -3 -8 -19 -24 -35 -16 -15 -29 -33 -29 -39 0 -5 -5
-10 -11 -10 -5 0 -8 -4 -4 -9 3 -5 -4 -13 -16 -16 -11 -4 -18 -9 -15 -12 3 -3
-2 -13 -12 -22 -9 -9 -22 -25 -29 -36 -6 -11 -16 -19 -23 -17 -6 1 -9 -2 -5
-8 3 -5 1 -10 -5 -10 -6 0 -9 -4 -6 -9 3 -5 -1 -12 -10 -15 -9 -3 -14 -13 -11
-21 4 -9 1 -12 -7 -9 -8 3 -17 0 -22 -7 -5 -8 -3 -10 7 -4 8 5 6 -1 -5 -13
-10 -12 -24 -19 -30 -15 -6 3 -8 3 -4 -2 4 -4 0 -14 -10 -22 -9 -8 -11 -11 -3
-8 9 5 8 -1 -4 -19 -10 -14 -20 -26 -24 -26 -3 0 -21 -23 -40 -50 -19 -28 -38
-50 -43 -50 -5 0 -6 -5 -3 -10 3 -6 -1 -13 -9 -16 -9 -3 -16 -11 -16 -16 0
-15 -62 -84 -73 -80 -5 1 -6 -2 -2 -7 7 -13 -24 -63 -35 -56 -4 3 -10 -2 -14
-10 -3 -8 -1 -15 4 -15 5 0 -1 -10 -13 -23 -12 -13 -26 -21 -31 -19 -5 3 -6 0
-2 -6 4 -7 -4 -22 -16 -35 -13 -13 -22 -30 -20 -37 3 -7 0 -10 -6 -6 -6 3 -13
-3 -17 -14 -4 -11 -11 -18 -16 -15 -5 3 -6 -1 -3 -9 3 -9 1 -16 -5 -16 -6 0
-11 -6 -11 -14 0 -7 -8 -20 -18 -27 -16 -13 -16 -13 -2 6 14 19 14 19 -2 6
-10 -7 -16 -17 -13 -21 3 -5 1 -11 -5 -15 -6 -4 -7 -11 -4 -17 5 -7 1 -9 -9
-5 -12 4 -15 1 -12 -15 3 -11 2 -18 -2 -15 -3 4 -12 -1 -19 -11 -8 -11 -28
-18 -56 -19 -24 -1 -61 -4 -83 -8 -22 -4 -58 -8 -81 -9 -22 -2 -46 -6 -52 -10
-7 -4 -12 -2 -12 6 0 9 -3 9 -8 2 -4 -6 -17 -10 -30 -9 -12 1 -22 -1 -22 -5 0
-4 -16 -6 -35 -5 -19 1 -35 -3 -35 -9 0 -6 -5 -4 -10 4 -8 12 -12 13 -19 2 -9
-15 -20 -15 -39 0 -9 8 -11 7 -7 -3 4 -11 -8 -14 -59 -14 -35 0 -63 -2 -61 -6
4 -5 -35 -10 -105 -12 -14 0 -28 -5 -32 -11 -6 -7 -11 -6 -18 4 -5 8 -10 10
-10 5 0 -10 -17 -14 -85 -18 -16 -1 -33 -6 -37 -12 -5 -6 -8 -6 -8 1 0 6 -7
11 -15 11 -8 0 -12 -4 -9 -8 2 -4 -4 -8 -13 -8 -58 -1 -96 -9 -112 -23 -11 -9
-21 -15 -23 -13 -2 3 -5 -11 -6 -30 -2 -19 2 -35 8 -35 5 0 10 -7 10 -16 0 -8
4 -13 9 -9 5 3 12 1 16 -4 4 -7 15 -7 30 -1 18 7 25 6 25 -3 0 -8 3 -9 8 -1 4
6 18 10 32 10 14 0 31 3 38 8 6 4 12 5 12 2 0 -3 11 -1 25 4 16 6 26 6 31 -1
4 -6 11 -6 20 2 14 11 34 14 127 18 19 1 26 5 21 13 -4 7 -3 8 4 4 19 -12 53
-16 47 -6 -4 6 11 8 34 6 23 -2 43 0 46 4 3 5 17 7 31 4 17 -3 23 -1 19 7 -6
8 -2 8 13 0 15 -8 23 -8 28 1 5 7 3 8 -6 3 -9 -5 -11 -4 -6 4 4 6 13 8 19 4
17 -10 47 -11 47 -1 0 11 23 6 32 -7 5 -6 8 -5 8 2 0 7 7 10 15 7 8 -4 15 -1
15 6 0 9 3 10 14 1 11 -9 15 -8 20 5 5 13 9 14 21 4 12 -10 18 -10 30 0 12 10
15 10 15 0 0 -9 4 -9 17 1 20 17 16 17 36 0 14 -11 18 -11 23 2 8 22 33 10 27
-13 -3 -10 -19 -33 -36 -51 -18 -18 -26 -29 -19 -25 11 7 11 4 1 -12 -7 -12
-16 -19 -19 -17 -4 2 -12 -12 -19 -31 -7 -18 -18 -34 -26 -34 -7 0 -16 -11
-19 -24 -3 -14 -18 -38 -32 -55 -14 -17 -22 -31 -18 -31 5 0 -2 -7 -14 -16
-12 -8 -20 -20 -17 -25 4 -5 1 -9 -6 -9 -7 0 -10 -3 -6 -6 6 -6 -16 -36 -46
-63 -9 -8 -17 -21 -17 -28 0 -7 -5 -13 -11 -13 -5 0 -8 -4 -5 -9 3 -5 -1 -14
-9 -21 -8 -7 -15 -19 -15 -27 0 -8 -5 -11 -12 -7 -8 5 -9 2 -5 -10 4 -10 3
-15 -3 -11 -9 6 -14 -8 -11 -28 1 -5 -3 -6 -8 -3 -5 4 -12 -3 -16 -14 -4 -11
-11 -18 -16 -14 -5 3 -8 2 -7 -3 2 -8 -20 -54 -31 -63 -3 -3 -12 -17 -20 -32
-8 -15 -19 -24 -24 -21 -6 4 -8 0 -5 -9 4 -8 -2 -21 -12 -28 -11 -8 -17 -17
-14 -22 3 -4 1 -8 -5 -8 -5 0 -13 -9 -16 -20 -4 -11 -11 -18 -16 -15 -5 3 -6
-1 -3 -9 3 -9 2 -16 -3 -16 -9 0 -36 -45 -37 -63 -1 -4 -6 -11 -12 -15 -20
-13 -73 -99 -66 -107 4 -3 2 -5 -5 -3 -6 1 -10 -1 -9 -5 0 -5 -7 -13 -17 -18
-9 -6 -15 -14 -12 -19 3 -4 -2 -11 -11 -14 -9 -4 -14 -13 -10 -21 3 -10 -1
-15 -11 -15 -9 0 -14 -3 -10 -6 3 -3 -5 -18 -19 -33 -13 -14 -30 -38 -37 -54
-6 -15 -16 -27 -20 -27 -5 0 -5 -4 -2 -10 3 -5 1 -10 -5 -10 -6 0 -14 -8 -17
-17 -4 -9 -13 -24 -20 -33 -7 -8 -13 -19 -14 -25 0 -5 -10 -15 -22 -22 -12 -7
-16 -12 -9 -13 10 0 10 -3 0 -14 -7 -8 -16 -12 -21 -9 -4 2 -6 1 -5 -4 4 -14
-23 -54 -32 -48 -6 3 -7 -1 -4 -9 3 -9 -4 -25 -18 -38 -23 -23 -34 -58 -17
-58 5 0 6 -7 2 -15 -3 -10 0 -15 8 -13 8 2 13 -2 12 -9 -2 -7 3 -10 11 -7 8 3
17 0 21 -6 5 -8 11 -8 21 1 8 6 14 8 14 5 0 -12 25 17 33 37 3 9 11 17 17 17
6 0 8 5 5 10 -3 6 1 13 9 16 9 3 13 10 10 15 -3 5 0 9 5 9 6 0 11 7 11 15 0 8
5 15 10 15 6 0 10 7 10 16 0 10 6 14 14 11 10 -4 13 -1 10 7 -3 7 2 21 11 30
9 9 13 22 9 28 -4 7 -4 10 1 6 10 -10 35 17 35 37 0 11 5 15 14 12 9 -4 13 -1
10 7 -2 7 4 23 15 35 12 13 18 28 14 34 -3 5 -1 7 5 3 6 -3 16 7 23 23 7 16
16 28 20 25 4 -2 10 0 14 6 3 5 1 10 -6 10 -7 0 -4 7 7 15 10 8 15 15 10 15
-5 0 3 11 18 25 14 13 26 27 26 30 -1 21 1 25 10 20 5 -3 10 1 10 10 0 9 10
26 23 39 13 13 21 29 19 36 -3 7 -1 10 4 7 5 -3 18 12 28 34 10 21 23 36 29
32 6 -3 7 -1 3 5 -4 6 1 20 11 30 10 10 25 26 33 37 13 17 13 18 0 11 -8 -4
-5 1 7 12 12 11 19 23 15 27 -4 5 2 5 12 1 15 -5 17 -4 7 8 -9 11 -8 15 4 20
8 3 15 13 15 21 0 9 5 13 10 10 5 -3 10 3 10 14 0 11 8 25 18 30 9 6 13 11 9
11 -8 0 1 13 35 51 10 10 15 19 11 19 -4 0 2 7 13 16 10 8 12 13 4 9 -8 -4 -6
1 4 9 11 9 16 16 11 16 -4 0 1 8 11 18 11 9 28 34 39 55 11 21 24 41 29 44 5
4 6 0 1 -7 -6 -9 -4 -11 4 -6 7 5 10 10 7 13 -9 9 14 44 24 38 6 -3 7 0 5 8
-3 7 7 27 21 43 15 16 27 31 27 34 -1 3 3 4 8 3 4 -2 6 4 3 12 -4 8 -1 15 5
15 6 0 11 7 11 15 0 7 8 19 17 24 10 6 14 11 8 11 -5 0 1 10 15 21 14 11 19
18 12 14 -8 -4 1 13 20 37 18 25 40 55 48 68 8 13 23 30 32 39 10 8 18 23 18
33 0 10 3 17 8 16 4 -2 9 2 11 7 6 13 28 35 36 35 3 0 4 -4 1 -8 -3 -5 1 -9 9
-9 8 0 11 5 8 10 -4 6 0 8 10 4 9 -3 19 -2 22 3 3 6 15 6 30 0 14 -5 25 -6 25
-1 0 4 16 7 35 6 19 -1 35 3 35 9 0 6 5 4 10 -4 5 -8 10 -10 10 -4 0 6 16 10
38 10 20 -1 43 3 51 9 12 8 13 7 6 -5 -7 -12 -6 -13 6 -5 8 6 35 11 61 10 27
0 48 4 48 8 0 4 10 3 21 -4 12 -6 19 -7 15 -1 -3 5 3 12 14 15 11 3 20 2 20
-2 0 -4 7 -8 15 -8 8 0 15 3 15 6 0 10 63 6 79 -4 10 -5 12 -4 7 3 -5 8 2 12
21 13 15 0 44 3 63 5 19 2 68 5 108 6 41 1 72 7 72 13 0 5 5 3 10 -5 5 -8 10
-10 10 -4 0 7 9 14 21 17 17 5 18 3 8 -9 -10 -13 -8 -13 15 -4 15 5 32 8 37 4
5 -3 9 -2 9 3 0 4 29 8 65 7 36 0 65 4 65 9 0 5 7 4 15 -3 13 -11 18 -10 31 6
9 10 13 14 10 8 -3 -7 1 -15 10 -18 8 -3 12 -2 9 4 -7 11 8 14 19 3 10 -11 37
-12 30 -2 -6 10 -8 10 69 13 32 1 60 -1 62 -4 5 -8 -10 -31 -21 -33 -5 -1 -10
-9 -11 -17 -1 -8 -10 -20 -19 -27 -10 -7 -14 -13 -8 -13 5 0 1 -7 -9 -14 -10
-8 -18 -16 -17 -18 1 -1 -4 -16 -11 -33 -23 -58 -28 -163 -8 -176 6 -4 8 -12
5 -18 -4 -6 3 -15 18 -21 14 -5 26 -17 26 -25 0 -9 5 -13 11 -9 6 3 15 0 20
-7 7 -11 9 -11 9 -1 0 7 5 10 10 7 6 -4 7 -11 4 -17 -5 -7 2 -9 20 -6 14 3 26
1 26 -4 0 -5 4 -7 9 -4 5 4 12 0 14 -6 3 -7 6 -4 6 6 1 19 1 19 14 1 11 -14
16 -15 22 -5 6 10 9 9 16 -1 7 -12 9 -12 9 0 0 11 3 11 17 0 11 -10 14 -10 9
-1 -5 9 4 12 33 13 73 2 86 5 84 15 -1 6 5 11 13 11 7 0 14 -7 14 -16 0 -11 3
-10 15 5 8 10 15 15 15 10 0 -5 8 -2 17 5 14 12 16 12 9 -1 -5 -9 -2 -8 7 2
10 13 16 15 25 6 9 -9 12 -9 12 0 0 7 8 12 18 10 9 -2 16 2 15 7 -1 6 14 10
32 10 21 -1 36 4 40 12 2 8 10 11 15 8 6 -4 18 -1 27 7 14 11 16 11 8 -2 -4
-8 3 -5 17 8 17 16 27 19 30 11 3 -8 8 -7 20 4 8 9 18 13 22 10 3 -4 6 -1 6 7
0 10 3 10 15 0 12 -10 15 -10 15 4 0 9 5 16 11 16 5 0 7 -6 3 -12 -5 -9 -3 -9
9 1 9 7 15 17 12 21 -3 5 3 6 14 3 10 -3 22 0 25 6 4 5 14 7 23 4 11 -4 14 -3
9 5 -5 8 1 12 17 12 14 0 30 6 37 14 6 8 18 12 26 9 8 -3 14 0 14 7 0 7 6 10
14 7 8 -3 17 -1 20 6 3 9 5 9 5 0 1 -7 -8 -22 -18 -32 -11 -11 -17 -22 -14
-25 3 -2 -4 -15 -16 -27 -12 -13 -21 -29 -21 -36 0 -7 -5 -13 -11 -13 -5 0 -8
-4 -4 -9 3 -5 0 -13 -6 -16 -5 -4 -8 -13 -5 -21 3 -8 0 -13 -6 -11 -5 1 -12
-7 -14 -17 -1 -10 -8 -22 -14 -26 -7 -4 -11 -10 -10 -14 4 -15 -12 -66 -19
-61 -5 2 -6 -7 -3 -22 4 -19 2 -24 -8 -18 -9 6 -9 3 0 -15 8 -15 8 -20 1 -16
-6 4 -11 2 -11 -3 0 -6 6 -11 13 -11 7 0 8 -3 2 -8 -14 -10 -17 -32 -4 -32 8
0 7 -5 -2 -16 -10 -12 -10 -17 -1 -23 7 -4 13 -19 14 -33 1 -15 7 -26 13 -25
5 1 9 -4 7 -10 -1 -7 5 -13 13 -13 8 0 15 -4 15 -10 0 -5 6 -10 14 -10 8 0 16
-6 19 -14 4 -9 18 -12 41 -11 20 2 36 -1 36 -6 0 -5 12 -4 27 2 19 7 28 6 33
-2 6 -8 13 -8 27 0 11 6 30 8 42 6 11 -2 21 1 21 7 0 6 7 5 17 -3 9 -8 14 -9
10 -3 -4 7 0 15 9 18 10 4 13 2 8 -7 -6 -9 -5 -9 8 0 8 7 18 10 21 6 4 -3 7
-1 7 6 0 7 5 9 10 6 5 -3 10 0 10 7 0 9 3 9 10 -2 8 -12 10 -12 10 -1 0 8 3
11 7 8 3 -4 12 -2 20 4 7 6 13 8 13 4 0 -4 7 -2 15 5 8 6 18 9 23 6 6 -3 15 1
22 9 7 8 16 12 21 9 5 -3 9 -1 9 4 0 6 7 13 16 16 8 3 12 2 9 -4 -3 -5 8 -2
24 8 17 9 31 21 31 25 0 5 4 5 10 2 6 -3 10 -2 10 4 0 6 6 8 14 5 8 -3 24 4
35 15 12 12 21 18 21 15 0 -4 7 -1 15 6 12 10 15 10 16 -1 0 -8 5 -4 11 9 6
12 16 21 22 19 6 -2 17 3 24 12 11 13 12 13 7 1 -4 -8 1 -6 9 4 9 11 16 17 16
13 0 -4 10 2 22 13 13 12 31 19 41 16 16 -4 16 -2 5 12 -10 12 -10 14 0 8 7
-4 12 -2 12 4 0 6 4 9 10 5 5 -3 21 5 35 17 15 13 27 21 28 18 2 -4 31 18 61
46 6 5 19 13 29 17 10 4 15 12 12 17 -4 6 -3 10 2 9 17 -3 53 14 47 22 -3 5 1
9 8 9 8 0 14 -9 14 -19 0 -11 -3 -18 -7 -15 -10 6 -19 -22 -14 -46 2 -11 -1
-20 -6 -20 -6 0 -9 -6 -6 -12 2 -7 -3 -18 -11 -24 -12 -9 -12 -13 -2 -19 8 -5
11 -4 7 2 -3 5 0 10 8 10 11 0 12 -4 4 -14 -6 -7 -9 -22 -6 -33 3 -11 2 -18
-3 -15 -4 2 -7 -11 -6 -30 0 -19 6 -33 11 -31 6 2 10 -13 10 -33 1 -22 9 -46
20 -58 37 -40 44 -51 37 -59 -4 -4 -1 -4 6 0 7 4 24 0 38 -9 14 -9 39 -18 55
-19 15 -1 31 -5 35 -9 4 -3 16 -2 27 4 15 8 18 8 12 -1 -6 -9 -2 -9 14 -1 18
10 21 9 21 -6 1 -16 1 -17 10 -1 7 12 20 15 50 12 22 -2 40 1 40 6 0 5 7 6 17
3 11 -5 14 -3 8 6 -6 10 -3 11 14 2 16 -9 21 -9 21 0 0 6 7 9 15 5 8 -3 15 0
15 6 0 6 6 5 17 -3 9 -8 14 -9 10 -3 -6 11 36 30 56 26 4 -1 7 3 7 9 0 5 4 8
9 4 5 -3 12 -1 16 5 4 6 11 8 16 5 5 -4 9 -1 9 6 0 7 3 9 7 6 3 -4 17 0 30 8
13 9 23 12 23 8 0 -4 7 2 16 13 8 10 12 12 8 4 -7 -12 -5 -13 8 -3 8 7 18 9
22 5 4 -4 6 -2 4 3 -2 6 1 11 5 12 5 1 15 10 24 20 8 10 11 11 7 3 -7 -13 -5
-13 9 -1 9 7 17 10 17 5 0 -5 14 6 30 24 17 18 30 28 30 22 0 -6 14 3 30 20
18 18 35 28 43 24 6 -4 9 -4 5 1 -8 9 10 28 35 38 11 4 15 12 11 19 -4 7 -4
10 1 6 4 -4 15 -3 24 1 9 5 32 10 51 12 19 2 38 8 42 14 5 6 8 4 8 -5 0 -10 3
-11 8 -4 4 7 21 13 37 15 17 2 38 10 48 18 16 14 17 13 12 -5 -6 -18 -6 -18 8
-1 8 9 21 15 30 11 8 -3 18 0 22 6 5 8 11 7 23 -2 12 -10 14 -10 8 0 -5 8 0
12 13 12 12 0 23 -1 24 -2 2 -2 12 4 22 12 17 13 18 13 10 0 -8 -13 -7 -13 8
-1 9 7 17 10 17 6 0 -4 6 -3 13 2 6 6 20 9 30 8 9 -2 17 2 17 8 0 8 3 8 8 2 9
-13 35 -18 27 -5 -5 8 21 13 51 9 4 0 11 5 15 13 5 7 9 8 9 3 0 -6 9 -11 20
-11 11 0 20 4 20 9 0 4 5 5 10 2 6 -3 10 -1 10 6 0 10 3 10 12 1 6 -6 17 -8
27 -3 9 5 24 7 34 6 9 -2 17 1 17 7 0 6 6 5 15 -2 12 -10 15 -10 15 0 0 10 3
10 14 1 11 -9 17 -9 28 2 9 10 20 12 35 6 15 -6 23 -5 23 2 0 7 6 6 17 -2 9
-8 14 -9 10 -2 -5 8 2 11 23 9 16 -1 32 -5 36 -8 6 -7 -36 -34 -48 -30 -5 1
-8 -4 -8 -12 0 -9 -7 -13 -20 -11 -11 2 -20 -1 -20 -6 0 -5 -8 -13 -17 -16
-10 -4 -29 -15 -42 -25 -13 -10 -27 -15 -32 -12 -5 3 -9 -2 -9 -11 0 -9 -4
-13 -10 -10 -5 3 -10 2 -10 -4 0 -6 -6 -8 -14 -5 -7 3 -16 -2 -20 -11 -3 -9
-10 -13 -16 -10 -5 3 -10 1 -10 -4 0 -6 -7 -11 -16 -11 -9 0 -12 -5 -8 -12 4
-7 4 -10 -1 -6 -4 4 -17 2 -29 -4 -11 -7 -25 -11 -30 -10 -5 2 -6 -4 -3 -12 4
-10 1 -13 -9 -9 -7 3 -14 0 -14 -7 0 -6 -4 -8 -10 -5 -5 3 -10 1 -10 -5 0 -6
-4 -8 -10 -5 -5 3 -10 1 -10 -5 0 -6 -8 -14 -17 -17 -10 -4 -27 -15 -38 -25
-10 -10 -25 -16 -33 -13 -7 2 -10 0 -7 -5 3 -6 1 -10 -4 -10 -6 0 -20 -9 -31
-20 -11 -11 -20 -18 -20 -15 0 3 -10 -4 -22 -15 -12 -11 -28 -18 -36 -15 -7 2
-10 1 -7 -5 7 -11 -29 -32 -40 -22 -5 4 -5 2 -1 -5 3 -7 -2 -14 -14 -18 -11
-4 -17 -11 -14 -17 4 -6 1 -9 -7 -6 -7 2 -23 -5 -36 -16 -40 -37 -51 -45 -57
-39 -3 4 -6 -1 -6 -11 0 -9 -5 -14 -10 -11 -6 3 -13 -1 -16 -9 -3 -9 -10 -14
-14 -11 -4 3 -11 -2 -14 -11 -3 -9 -13 -14 -21 -11 -9 4 -12 1 -8 -9 3 -9 -1
-14 -12 -14 -9 0 -13 -4 -10 -10 3 -5 1 -10 -5 -10 -13 0 -90 -77 -90 -90 0
-5 -7 -7 -15 -4 -8 4 -15 1 -15 -6 0 -7 -11 -23 -26 -36 -14 -13 -22 -24 -19
-24 3 0 -3 -10 -15 -22 -11 -12 -20 -28 -20 -35 0 -7 -3 -13 -7 -13 -5 0 -13
-11 -20 -25 -8 -19 -8 -23 0 -18 9 5 9 3 1 -8 -15 -20 -18 -82 -3 -74 8 6 8 2
0 -13 -9 -17 -8 -22 9 -27 11 -3 25 -15 30 -25 6 -11 18 -17 30 -15 11 2 20 0
20 -6 0 -5 7 -9 16 -9 8 0 13 4 10 8 -2 4 5 9 17 9 17 2 19 0 7 -7 -8 -5 -10
-10 -4 -10 6 0 14 3 18 7 3 4 15 8 26 10 34 5 45 8 50 13 15 15 52 30 60 25 6
-4 10 -1 10 4 0 6 6 10 13 8 6 -1 11 4 9 11 -1 8 2 11 7 8 5 -4 13 -1 16 5 4
5 13 8 21 5 8 -3 17 1 20 9 4 8 10 12 15 9 5 -3 9 -1 9 5 0 5 10 13 22 17 13
4 29 14 36 23 11 13 12 13 7 1 -4 -8 2 -5 13 7 11 12 23 19 27 15 3 -4 11 1
16 11 6 9 14 15 20 12 5 -4 12 1 15 9 3 9 13 16 21 16 8 0 11 5 7 12 -5 8 -2
9 9 5 10 -3 17 -2 17 3 0 5 9 12 20 15 11 4 18 11 15 16 -4 5 1 9 9 9 9 0 16
5 16 12 0 6 3 9 6 5 4 -3 12 -1 20 6 36 33 45 37 56 31 6 -4 8 -3 4 4 -8 13
48 55 59 44 5 -4 6 -2 3 3 -3 6 0 16 8 23 8 7 14 10 14 7 0 -3 12 6 27 20 15
14 31 25 36 25 4 0 5 5 1 12 -5 8 -2 9 10 5 9 -4 14 -3 11 2 -3 5 4 12 15 16
11 4 17 11 14 17 -5 8 -1 9 10 5 9 -4 15 -3 12 1 -4 8 31 45 44 47 3 0 40 35
83 78 42 42 83 77 90 77 8 0 7 4 -3 10 -9 6 -10 10 -3 10 15 0 73 55 73 69 0
6 9 15 20 21 11 6 18 15 15 19 -3 5 2 12 11 15 8 3 13 10 10 15 -3 5 1 12 10
15 9 4 14 9 11 12 -3 4 3 14 15 24 19 15 23 26 30 78 1 6 5 12 10 12 5 0 7 4
4 9 -3 5 2 15 11 22 14 12 16 12 9 -1 -4 -9 -2 -8 7 2 8 10 17 15 20 11 4 -3
7 -1 7 5 0 6 9 9 20 7 11 -2 18 0 15 6 -4 5 -1 9 6 9 7 0 21 8 32 18 11 9 17
11 13 4 -7 -11 -4 -11 15 0 13 7 26 15 29 18 3 3 12 5 20 5 8 -1 28 10 44 24
16 14 26 21 23 15 -3 -6 0 -11 8 -11 8 0 13 3 12 6 -1 3 3 8 8 9 6 2 19 9 30
15 11 6 23 10 28 9 4 -1 7 3 7 9 0 6 9 9 20 6 13 -3 20 0 20 9 0 8 6 14 13 15
31 2 51 9 58 21 5 7 9 9 9 4 0 -5 6 -3 13 3 8 6 17 8 20 4 4 -3 9 2 13 11 5
14 9 14 22 4 12 -10 14 -10 8 0 -6 11 5 17 27 13 4 0 7 4 7 10 0 5 5 7 12 3 6
-4 17 1 25 11 7 11 13 15 13 11 0 -5 8 -2 17 5 15 12 16 12 8 -1 -6 -11 -3
-10 12 3 11 9 23 14 26 10 4 -3 7 -1 7 6 0 7 5 9 11 5 6 -3 15 -1 19 7 11 16
40 21 40 6 1 -7 6 -2 13 9 7 12 20 20 30 19 9 -2 17 1 17 7 0 6 7 7 16 4 10
-4 13 -2 8 6 -5 8 -2 9 10 5 10 -4 19 -1 22 8 3 7 11 12 19 9 7 -3 20 2 29 11
9 9 16 12 16 7 0 -6 10 -6 24 1 13 7 22 15 20 18 -2 4 7 6 21 4 14 -1 25 2 25
7 0 5 4 7 9 3 5 -3 12 -1 16 5 3 5 15 10 26 10 10 0 19 5 19 11 0 6 7 9 15 6
8 -4 17 -2 20 4 4 5 11 7 16 4 5 -4 9 -1 9 4 0 6 11 11 24 11 14 0 28 5 31 10
4 6 11 8 16 5 5 -4 9 -2 9 4 0 5 9 8 20 6 11 -2 20 1 20 6 0 6 5 7 10 4 6 -3
10 -1 10 5 0 6 4 9 9 5 5 -3 13 0 16 6 4 5 13 8 21 5 8 -3 14 -1 14 3 0 5 8 8
18 7 9 -2 20 1 23 6 3 5 16 10 27 11 12 1 22 4 22 7 0 3 12 7 27 8 15 1 29 5
32 10 5 6 16 9 56 15 6 1 12 5 15 9 3 4 19 9 35 12 17 2 30 5 30 6 0 2 18 6
53 14 9 2 16 9 14 17 -3 10 0 10 12 -1 13 -10 16 -10 16 0 0 8 3 10 7 7 3 -4
13 -1 21 6 13 10 14 9 7 -2 -6 -11 -5 -12 6 -5 8 5 17 9 22 10 4 1 10 3 15 4
4 1 14 3 22 4 8 0 14 7 12 14 -2 14 19 12 30 -3 5 -6 8 -6 8 2 0 6 11 10 25 8
14 -1 28 2 31 7 3 5 12 7 20 4 8 -3 14 -1 14 5 0 6 6 9 14 6 8 -3 17 0 20 8 3
9 13 11 28 7 12 -3 17 -7 10 -10 -7 -2 -10 -9 -6 -15 3 -7 -2 -3 -11 8 -16 19
-16 19 -11 -7 4 -23 1 -28 -16 -28 -12 0 -19 -3 -15 -6 8 -8 -47 -64 -63 -64
-6 0 -8 -5 -4 -12 5 -8 2 -9 -10 -5 -9 4 -15 3 -11 -2 3 -5 -6 -18 -20 -29
-14 -11 -25 -26 -25 -33 0 -7 -3 -10 -6 -7 -8 8 -90 -74 -86 -87 2 -5 0 -7 -4
-3 -4 4 -17 -4 -30 -17 -13 -14 -28 -25 -34 -25 -6 0 -9 -4 -6 -9 3 -5 -1 -12
-10 -15 -9 -3 -12 -11 -8 -18 4 -7 4 -10 0 -6 -5 4 -20 -4 -34 -17 -14 -13
-30 -21 -35 -18 -6 3 -8 2 -4 -3 3 -5 -1 -18 -9 -29 -8 -10 -14 -16 -14 -12 0
5 -6 2 -14 -5 -8 -7 -12 -16 -9 -20 2 -5 -3 -8 -11 -8 -9 0 -16 -7 -16 -16 0
-8 -4 -12 -10 -9 -5 3 -10 -1 -10 -9 0 -8 -5 -18 -12 -22 -7 -5 -9 -2 -4 7 4
8 0 5 -8 -5 -9 -11 -16 -23 -16 -28 0 -4 -3 -7 -8 -5 -4 1 -8 -2 -9 -7 -1 -5
-12 -14 -25 -21 -13 -6 -22 -17 -21 -23 2 -7 -2 -12 -8 -12 -6 0 -24 -13 -40
-29 -16 -16 -29 -34 -29 -40 0 -6 -6 -10 -12 -8 -7 1 -12 -4 -11 -10 2 -7 -9
-16 -23 -19 -14 -4 -21 -9 -16 -13 6 -3 -5 -17 -24 -31 -18 -14 -34 -31 -34
-38 0 -7 -4 -10 -10 -7 -5 3 -10 -1 -10 -10 0 -9 -3 -14 -7 -12 -10 6 -34 -19
-26 -27 4 -3 -1 -6 -10 -6 -9 0 -17 -6 -17 -14 0 -7 -13 -23 -30 -36 -16 -12
-27 -27 -24 -32 3 -4 2 -7 -3 -6 -5 2 -31 -19 -58 -47 -27 -27 -45 -44 -40
-36 5 10 4 12 -4 7 -6 -4 -9 -11 -7 -15 7 -11 -49 -63 -58 -54 -4 5 -7 3 -6
-2 4 -19 0 -36 -7 -32 -5 3 -17 -5 -28 -16 -11 -11 -13 -16 -5 -12 13 8 13 6
1 -8 -7 -9 -17 -14 -22 -11 -5 3 -9 -1 -9 -9 0 -17 -46 -58 -56 -49 -4 4 -5 0
-2 -8 2 -8 -4 -23 -14 -32 -10 -10 -18 -15 -18 -11 0 4 -8 -4 -17 -17 -10 -14
-17 -29 -15 -33 1 -5 -2 -6 -6 -3 -5 3 -18 -5 -28 -19 -10 -13 -21 -22 -26
-19 -4 3 -5 -3 -1 -12 4 -12 3 -15 -5 -10 -7 4 -12 1 -12 -9 0 -9 -3 -14 -7
-12 -8 5 -36 -20 -31 -25 3 -3 -46 -60 -102 -117 -19 -20 -35 -39 -35 -43 0
-3 -13 -18 -28 -32 -15 -14 -25 -26 -21 -26 3 0 -1 -12 -11 -26 -9 -15 -12
-23 -6 -20 6 4 11 1 11 -6 0 -8 8 -20 18 -28 21 -19 72 -26 72 -10 0 15 26 41
34 33 3 -4 6 -2 6 4 0 13 29 46 55 62 16 10 17 11 2 7 -11 -3 -15 -2 -12 4 3
6 13 10 22 10 9 0 14 3 10 6 -8 8 25 44 35 38 4 -3 8 4 8 16 0 12 4 19 8 16 5
-3 15 6 22 19 7 13 16 22 20 20 4 -3 10 5 13 16 4 13 10 18 18 13 7 -4 10 -3
5 4 -3 6 3 16 14 22 11 6 18 15 15 21 -4 5 2 9 11 9 10 0 15 3 11 6 -3 3 23
35 59 71 35 35 64 68 64 74 0 5 6 8 13 6 6 -1 11 4 10 11 -2 6 5 12 14 12 9 0
13 3 10 6 -10 10 34 45 46 37 5 -3 7 -1 3 5 -3 5 14 31 39 55 25 25 45 50 45
56 0 11 15 15 35 11 5 -1 7 1 3 5 -3 4 40 53 97 110 57 57 100 107 97 111 -4
4 1 4 10 1 10 -3 17 -3 15 1 -3 11 253 263 261 258 5 -3 14 5 22 17 12 21 12
21 -6 8 -10 -8 3 6 30 32 27 26 53 47 57 47 5 0 9 6 9 14 0 8 9 18 20 21 11 4
18 11 15 16 -4 5 -2 9 4 9 14 0 81 68 81 82 0 6 3 9 6 5 3 -3 19 8 35 24 15
16 33 29 39 29 6 0 9 3 7 8 -3 4 1 13 9 20 8 7 14 9 14 5 1 -4 7 3 15 17 8 14
14 21 15 16 0 -5 15 8 33 28 19 20 37 33 42 29 4 -5 5 -3 2 3 -4 7 4 19 17 27
37 25 57 48 50 59 -4 6 -2 8 4 4 6 -3 13 -2 17 4 4 6 11 8 16 4 5 -3 9 -2 8 3
-4 22 2 32 16 27 9 -4 15 -1 15 7 0 18 50 60 63 52 6 -3 7 -1 3 5 -4 7 -4 17
0 23 4 8 9 7 15 -2 7 -12 9 -12 9 0 0 20 43 56 68 58 40 2 43 3 36 16 -5 8 -2
8 9 -2 9 -7 17 -9 17 -4 0 5 12 8 28 8 15 -1 33 3 40 8 8 6 12 5 12 -2 0 -8 5
-9 19 -1 15 8 68 16 134 20 5 0 5 5 1 11 -5 8 -1 8 13 0 11 -6 23 -8 26 -5 3
4 35 8 71 9 36 2 70 6 75 9 5 4 13 1 16 -4 5 -8 12 -7 23 3 10 8 26 13 37 10
25 -5 86 -4 96 3 4 2 11 0 14 -6 4 -7 12 -7 18 -2 20 15 228 7 238 -9 5 -8 9
-9 9 -4 0 6 9 11 20 11 11 0 20 -3 20 -6 0 -4 16 -5 35 -4 19 2 35 -1 35 -6 0
-5 13 -5 30 0 16 5 29 5 29 2 -3 -19 3 -22 21 -12 14 8 20 8 20 0 0 -7 8 -9
19 -5 11 3 22 1 26 -5 3 -6 11 -8 16 -4 5 3 16 0 24 -6 8 -7 15 -9 15 -4 0 5
5 2 10 -6 8 -12 10 -12 10 -1 0 10 3 11 13 2 8 -6 16 -8 19 -5 3 2 8 -2 12
-11 3 -9 -1 -18 -9 -21 -8 -4 -13 -10 -10 -14 3 -5 -1 -14 -8 -22 -8 -7 -12
-19 -9 -26 2 -6 -1 -12 -7 -12 -6 0 -10 -3 -9 -7 4 -15 -13 -53 -23 -53 -6 0
-8 -4 -5 -8 3 -5 -4 -25 -14 -45 -11 -21 -17 -37 -13 -37 5 0 4 -4 -2 -8 -15
-10 -35 -49 -35 -67 0 -8 -4 -15 -10 -15 -5 0 -10 -9 -10 -19 0 -11 -4 -23
-10 -26 -5 -3 -10 -15 -10 -26 0 -11 -7 -22 -15 -25 -8 -4 -13 -10 -10 -14 3
-4 -8 -34 -24 -66 -16 -33 -32 -67 -35 -77 -3 -10 -10 -16 -15 -13 -5 3 -9 0
-8 -7 1 -34 -4 -48 -15 -41 -6 4 -8 3 -5 -3 8 -13 -21 -73 -34 -73 -6 0 -8 -4
-5 -9 9 -14 -5 -42 -16 -35 -6 4 -8 -2 -3 -15 4 -12 2 -21 -4 -21 -6 0 -11 -7
-11 -15 0 -8 -5 -15 -11 -15 -5 0 -7 -4 -4 -10 3 -5 1 -10 -5 -10 -6 0 -9 -4
-5 -9 3 -5 -2 -17 -11 -25 -8 -9 -12 -16 -9 -16 4 0 0 -11 -9 -25 -9 -14 -14
-30 -11 -35 4 -6 -1 -7 -11 -3 -12 4 -15 3 -10 -5 4 -6 0 -22 -9 -35 -8 -13
-12 -27 -8 -30 3 -4 1 -7 -5 -7 -7 0 -12 -7 -12 -15 0 -8 -5 -15 -11 -15 -5 0
-7 -4 -4 -10 3 -5 1 -10 -4 -10 -6 0 -10 -3 -10 -7 4 -22 -3 -33 -18 -33 -12
0 -14 -3 -7 -8 8 -5 7 -16 -6 -39 -9 -18 -20 -30 -23 -27 -3 3 -5 -1 -4 -8 1
-31 -4 -48 -14 -48 -5 0 -7 5 -3 12 4 6 3 8 -4 5 -5 -4 -8 -16 -5 -27 3 -12 0
-20 -8 -20 -7 0 -10 -3 -6 -6 3 -4 -1 -13 -9 -21 -8 -8 -12 -19 -9 -24 4 -5 1
-9 -5 -9 -6 0 -8 -4 -5 -10 3 -5 1 -10 -4 -10 -6 0 -11 -7 -11 -15 0 -8 -5
-15 -12 -15 -6 0 -8 -3 -5 -7 4 -3 -5 -22 -20 -41 -15 -20 -21 -32 -15 -28 7
4 12 2 12 -3 0 -6 -7 -11 -16 -11 -8 0 -13 -4 -9 -9 3 -5 -2 -17 -11 -25 -8
-9 -12 -16 -7 -16 4 0 0 -7 -11 -15 -10 -7 -15 -18 -11 -24 3 -6 1 -11 -5 -11
-6 0 -8 -5 -5 -10 3 -6 -1 -13 -9 -16 -9 -3 -16 -12 -16 -18 0 -7 -8 -21 -18
-32 -10 -11 -17 -25 -14 -32 2 -6 -5 -12 -15 -12 -15 0 -15 -2 -3 -10 12 -8
12 -10 -3 -16 -9 -3 -17 -13 -17 -20 0 -8 -7 -17 -15 -20 -8 -4 -12 -10 -9
-15 3 -5 0 -9 -6 -9 -7 0 -10 -7 -7 -14 4 -10 1 -13 -9 -9 -9 3 -14 -2 -14
-16 0 -12 -4 -21 -10 -21 -5 0 -12 -11 -16 -25 -5 -22 -15 -29 -35 -27 -4 1
-4 -8 -1 -20 3 -13 1 -19 -5 -15 -5 4 -16 -5 -23 -18 -7 -13 -18 -21 -24 -18
-6 3 -8 3 -4 -2 11 -11 -11 -47 -24 -39 -7 4 -8 3 -4 -5 4 -6 1 -14 -8 -17 -8
-3 -12 -12 -9 -20 3 -8 0 -14 -6 -14 -6 0 -11 -9 -11 -20 0 -11 -6 -20 -12
-20 -10 0 -9 -3 1 -9 11 -7 11 -9 0 -14 -11 -4 -11 -6 -1 -6 7 -1 10 -6 6 -13
-4 -7 -3 -8 5 -4 6 4 13 1 16 -6 3 -7 16 -14 30 -14 14 -1 22 2 19 7 -3 5 2 6
10 3 9 -3 16 -1 16 6 0 6 4 9 9 5 5 -3 12 4 16 15 3 11 15 25 26 31 11 5 17
14 14 19 -3 5 4 14 15 20 11 6 18 15 15 21 -4 5 1 9 9 9 9 0 15 3 14 8 -3 15
15 42 25 35 5 -3 7 -1 3 5 -3 6 1 17 9 25 8 9 15 19 15 24 0 5 6 15 13 22 6 6
12 17 12 24 1 7 6 11 13 10 6 -2 9 4 6 12 -4 10 0 15 11 15 9 0 13 5 10 10 -3
6 -1 10 5 10 6 0 8 5 5 10 -3 6 -1 10 5 10 6 0 8 5 5 10 -3 6 -1 10 6 10 7 0
9 3 6 6 -4 4 3 15 14 25 11 9 20 20 20 23 -3 20 1 26 17 27 9 0 12 3 5 5 -12
6 33 81 46 77 4 -1 8 4 8 12 0 8 -5 11 -11 8 -13 -8 12 27 31 43 7 6 14 22 17
35 2 13 9 23 15 21 6 -1 11 7 11 18 0 11 7 23 15 26 8 4 12 10 9 16 -3 5 2 15
12 23 11 7 16 17 12 21 -4 4 0 13 10 21 9 8 11 12 5 8 -7 -3 -3 9 10 28 12 19
25 33 29 30 4 -2 5 2 2 10 -3 8 1 21 8 28 7 8 14 21 16 29 2 8 9 18 15 22 6 4
8 10 4 14 -3 4 3 15 15 25 14 13 16 19 7 19 -11 0 -11 2 1 10 8 5 15 13 16 17
2 19 17 42 24 38 4 -2 7 5 6 18 -1 13 4 21 12 19 8 -1 11 2 8 7 -7 11 14 61
26 61 4 0 8 9 8 21 0 13 4 18 12 13 7 -5 8 -3 4 5 -5 7 0 19 10 27 11 9 13 12
6 9 -11 -6 -11 -3 0 16 7 13 15 26 18 29 3 3 11 16 18 29 10 17 10 21 1 16 -8
-5 -10 -4 -5 3 4 7 15 12 24 13 9 0 12 3 6 5 -13 5 4 54 19 54 5 0 5 5 2 10
-3 6 -1 10 4 10 6 0 10 3 9 8 -4 14 38 92 46 85 4 -4 4 -1 1 8 -3 8 3 24 13
35 10 10 17 24 15 31 -2 6 2 17 9 25 7 7 14 20 16 28 2 8 9 18 15 22 7 4 8 8
3 8 -5 0 -1 10 10 22 12 13 13 18 4 13 -12 -7 -12 -5 1 11 9 10 14 26 11 34
-2 8 -1 12 3 8 8 -8 34 20 35 37 0 6 -5 3 -10 -5 -5 -8 -10 -10 -10 -4 0 6 7
17 15 24 9 7 13 15 11 18 -3 2 2 11 10 19 8 8 12 19 9 24 -4 5 -1 9 4 9 6 0
10 3 10 8 -3 19 2 33 11 27 6 -3 7 1 4 9 -4 10 -1 16 7 16 7 0 9 3 6 7 -4 3 1
15 10 26 12 13 13 17 4 12 -8 -5 -4 7 9 25 13 19 18 30 9 26 -7 -4 -5 0 5 8
11 9 16 16 10 16 -5 0 -2 5 6 10 13 9 13 10 0 10 -9 0 -11 3 -5 8 6 4 17 20
25 35 11 23 16 26 25 14 5 -8 18 -13 28 -11 9 1 17 -2 17 -7 0 -6 5 -7 10 -4
6 3 10 2 10 -4 0 -5 16 -15 35 -21 19 -6 33 -15 31 -19 -3 -4 5 -8 16 -8 12
-1 24 -6 27 -11 3 -5 21 -15 39 -23 17 -8 32 -19 32 -26 0 -6 9 -15 20 -18 11
-3 20 -11 20 -16 0 -6 5 -7 10 -4 6 3 10 1 10 -5 0 -17 26 -40 45 -40 9 0 14
-3 12 -7 -3 -5 5 -17 16 -28 11 -11 16 -14 12 -6 -6 10 -4 12 6 5 23 -14 49
-15 49 -1 0 8 4 7 10 -3 8 -13 10 -13 10 1 0 9 6 19 14 22 23 9 5 97 -20 97
-8 0 -14 8 -14 17 0 9 -3 13 -6 10 -4 -4 -23 10 -42 31 -19 20 -31 30 -27 22
4 -8 -4 -4 -18 10 -40 39 -55 50 -67 50 -5 0 -10 5 -10 11 0 5 -4 8 -9 4 -6
-3 -14 3 -20 12 -6 10 -11 14 -11 10 0 -5 -7 -1 -16 7 -8 9 -20 14 -24 11 -5
-3 -15 3 -22 15 -7 11 -16 20 -21 20 -4 0 -5 -5 -1 -12 4 -7 -6 -2 -23 10 -17
12 -33 19 -37 15 -3 -3 -6 -1 -6 6 0 8 -6 11 -16 7 -8 -3 -13 -2 -10 3 3 5 -1
11 -9 15 -8 3 -12 12 -9 21 3 8 11 12 17 8 5 -3 7 -1 4 4 -4 6 1 28 10 49 9
22 18 42 19 47 1 4 3 10 4 15 1 4 2 10 1 15 0 4 4 7 10 7 5 0 7 5 4 10 -3 6
-1 10 4 10 6 0 10 3 10 8 -4 24 2 42 13 36 6 -4 8 -3 4 4 -3 6 -2 21 3 34 5
12 8 26 7 29 0 4 8 17 19 30 11 12 14 19 8 15 -9 -5 -11 -2 -7 8 3 9 10 16 14
16 5 0 6 10 2 22 -3 14 -1 19 6 14 8 -5 10 -2 6 8 -3 9 -1 16 6 16 6 0 9 4 6
9 -7 10 16 71 26 71 4 0 8 5 8 11 0 5 -6 7 -12 3 -10 -6 -10 -5 -1 8 7 8 10
18 6 21 -3 4 -1 7 5 7 6 0 9 7 5 17 -4 10 -2 14 5 9 7 -4 10 1 7 14 -2 11 1
22 6 25 5 4 7 10 4 15 -3 5 -1 11 4 15 6 3 8 12 4 20 -3 8 0 15 7 15 6 0 8 5
5 10 -3 6 0 10 7 10 10 0 10 2 -1 9 -10 6 -10 10 -1 16 6 4 9 13 6 21 -3 8 0
14 7 14 9 0 8 3 -1 9 -11 7 -11 9 2 14 10 4 13 13 9 23 -4 11 -2 15 4 11 7 -5
9 0 6 14 -4 12 0 25 8 30 11 7 11 9 1 9 -10 0 -10 5 -2 21 7 11 9 27 6 35 -3
8 -1 14 5 14 6 0 8 9 4 20 -4 12 -1 27 5 35 9 10 9 15 2 15 -6 0 -9 7 -6 15 4
8 10 12 15 9 5 -3 6 2 3 10 -3 9 -10 13 -15 10 -5 -3 -6 2 -3 10 3 9 11 16 17
16 6 0 4 8 -5 17 -16 15 -16 18 -1 28 14 10 14 13 -1 27 -9 9 -16 31 -16 48 0
18 -4 29 -10 25 -5 -3 -10 3 -10 15 0 11 -7 23 -15 26 -8 4 -12 11 -8 17 3 5
1 7 -5 3 -6 -3 -18 1 -26 10 -9 9 -23 13 -31 10 -8 -3 -18 0 -22 7 -11 16 -38
17 -60 3z m-3 -130 c0 6 14 11 31 12 17 0 28 -2 25 -5 -3 -3 2 -13 12 -22 14
-12 18 -32 19 -89 0 -40 -4 -75 -8 -78 -5 -3 -4 -14 2 -26 8 -15 8 -19 0 -14
-9 6 -16 -17 -8 -27 1 -2 -4 -11 -12 -20 -11 -14 -11 -17 0 -17 11 0 11 -2 -1
-10 -8 -5 -11 -10 -6 -10 6 0 5 -5 -1 -11 -6 -6 -9 -18 -6 -25 3 -8 0 -14 -6
-14 -6 0 -8 -6 -5 -13 3 -8 -2 -20 -11 -27 -12 -10 -13 -16 -4 -26 8 -10 8
-14 0 -14 -6 0 -10 -3 -10 -7 1 -5 0 -10 -1 -13 -3 -10 -11 -45 -12 -57 -1 -7
-6 -13 -11 -13 -5 0 -7 -7 -3 -15 3 -8 0 -15 -6 -15 -6 0 -8 -3 -5 -7 4 -3 0
-17 -9 -31 -9 -13 -11 -21 -5 -18 7 5 9 1 5 -8 -3 -9 -10 -13 -15 -10 -5 3 -6
-2 -3 -10 3 -9 2 -16 -4 -16 -5 0 -8 -11 -7 -25 2 -14 -1 -25 -6 -25 -5 0 -9
-11 -9 -24 0 -14 -5 -28 -12 -32 -7 -5 -8 -3 -3 6 5 8 4 11 -3 7 -5 -4 -8 -17
-4 -29 4 -16 2 -19 -9 -13 -11 6 -11 5 -2 -5 9 -10 8 -16 -3 -27 -8 -8 -12
-19 -9 -24 4 -5 1 -9 -5 -9 -6 0 -8 -4 -5 -10 3 -5 0 -10 -7 -10 -9 0 -9 -3 2
-10 11 -7 11 -10 2 -10 -7 0 -10 -4 -7 -10 3 -5 1 -10 -4 -10 -6 0 -11 -12
-11 -26 0 -14 -4 -23 -10 -19 -5 3 -11 -2 -12 -12 0 -10 -2 -25 -2 -33 -1 -8
-8 -14 -15 -12 -7 1 -10 -2 -6 -8 4 -6 -1 -22 -10 -37 -12 -18 -13 -23 -4 -18
9 4 9 2 -1 -7 -8 -7 -15 -19 -16 -25 -1 -7 -2 -17 -2 -21 -3 -12 -35 -11 -51
2 -12 9 -13 8 -6 -4 8 -13 7 -13 -8 -1 -9 7 -17 10 -17 6 0 -5 -9 0 -19 9 -12
11 -21 14 -26 7 -4 -8 -12 -8 -26 -1 -11 6 -24 8 -29 5 -6 -3 -10 2 -10 12 0
11 -3 14 -8 7 -7 -11 -42 -15 -42 -5 0 4 -21 7 -47 8 -65 1 -65 1 -57 16 5 8
2 8 -9 -2 -9 -7 -17 -10 -17 -5 0 5 -5 2 -10 -6 -8 -12 -10 -12 -10 5 0 17 -2
17 -10 5 -5 -8 -10 -10 -10 -4 0 6 -26 9 -70 8 -56 -2 -72 1 -80 14 -9 16 -9
16 -10 0 0 -10 -5 -18 -11 -18 -5 0 -7 5 -3 11 4 7 -1 7 -16 -1 -15 -8 -20 -8
-16 -1 4 6 2 11 -3 11 -6 0 -11 -5 -11 -11 0 -8 -6 -7 -17 2 -14 12 -16 12 -8
0 6 -10 4 -13 -6 -9 -8 3 -22 9 -31 13 -12 5 -18 2 -18 -6 0 -11 -3 -11 -10 1
-5 8 -10 10 -10 5 0 -7 -26 -10 -65 -10 -40 1 -65 -3 -65 -9 0 -6 -4 -5 -9 3
-6 10 -13 10 -28 3 -15 -8 -24 -8 -33 1 -9 8 -11 8 -7 1 9 -15 -20 -27 -29
-12 -5 7 -2 8 7 3 8 -5 10 -4 6 0 -10 11 -39 16 -32 5 8 -13 -22 -19 -34 -7
-8 8 -11 8 -11 -1 0 -8 -10 -11 -25 -8 -15 3 -25 0 -25 -7 0 -7 -4 -6 -11 3
-8 12 -12 12 -16 2 -4 -10 -8 -10 -21 0 -12 10 -14 10 -8 1 5 -9 -2 -13 -23
-13 -29 0 -30 2 -19 20 7 11 16 20 19 20 13 0 57 48 51 55 -4 5 3 6 15 3 14
-4 20 -2 17 6 -3 7 6 21 18 32 l23 19 -20 -25 c-11 -14 7 1 39 32 32 32 63 55
68 52 4 -3 7 -2 6 3 -1 4 10 22 26 38 16 17 26 23 21 15 -5 -8 7 2 27 23 19
20 38 34 41 30 4 -3 7 -1 7 6 0 7 5 9 12 5 6 -4 8 -3 5 3 -7 11 50 60 64 56 5
-2 5 5 2 14 -4 10 -2 14 5 9 6 -3 15 2 21 11 6 10 11 15 11 11 0 -12 40 31 40
43 0 8 5 7 16 -1 8 -8 14 -9 13 -4 -4 21 2 35 11 29 6 -3 10 -1 10 5 0 6 5 8
12 4 7 -4 8 -3 4 4 -4 7 7 20 28 33 20 12 36 25 36 30 0 5 7 9 16 9 8 0 12 5
9 10 -3 6 1 10 9 10 8 0 19 7 24 16 5 8 17 17 28 18 11 2 18 10 16 20 -3 14
15 22 41 17 5 -1 6 2 3 7 -5 8 20 35 39 41 6 2 9 7 8 12 -2 5 6 9 18 9 11 0
18 4 15 8 -2 4 12 19 32 32 20 14 40 29 44 35 4 5 8 6 8 2 0 -4 11 4 25 19 14
15 25 23 25 19 0 -5 9 1 20 13 12 12 25 22 31 22 6 0 7 6 3 13 -5 7 -2 7 10
-2 12 -11 16 -11 14 -2 -2 7 6 18 17 24 10 7 27 21 38 32 10 11 16 14 12 8 -4
-9 -1 -11 9 -7 9 3 13 10 10 15 -3 5 0 9 5 9 6 0 13 0 16 0 2 0 17 12 32 26
15 13 33 22 40 19 8 -2 12 -1 9 4 -6 8 17 23 39 26 6 0 9 7 7 14 -1 7 2 10 8
6 6 -4 18 -1 27 7 14 11 16 11 9 -2 -4 -9 -2 -8 7 2 8 10 17 15 20 11 4 -3 7
0 7 8 0 11 2 11 10 -1 5 -8 10 -10 10 -4z m-8280 -203 c0 5 5 5 11 1 8 -4 8
-9 -1 -18 -8 -8 -13 -7 -20 4 -5 8 -10 20 -10 25 0 6 5 3 10 -5 5 -8 10 -11
10 -7z m-1020 -1467 c0 -3 -4 -8 -10 -11 -5 -3 -10 -1 -10 4 0 6 5 11 10 11 6
0 10 -2 10 -4z m4910 -410 c0 -3 -4 -8 -10 -11 -5 -3 -10 -1 -10 4 0 6 5 11
10 11 6 0 10 -2 10 -4z m190 -155 c-6 -12 -15 -21 -21 -21 -6 0 -7 -4 -4 -10
3 -5 -1 -10 -9 -10 -9 0 -16 -5 -16 -12 0 -6 -25 -35 -55 -64 -30 -30 -55 -51
-55 -48 0 2 -6 -1 -14 -8 -8 -7 -12 -16 -10 -20 3 -4 -7 -10 -21 -14 -13 -3
-23 -9 -22 -13 2 -3 -4 -14 -15 -23 -10 -10 -18 -16 -18 -13 0 3 -15 -10 -34
-29 -19 -19 -37 -31 -40 -28 -3 3 -6 0 -6 -6 0 -6 -9 -13 -20 -17 -11 -3 -19
-12 -17 -18 1 -7 -4 -11 -10 -9 -7 1 -13 -3 -13 -9 0 -5 -4 -7 -10 -4 -5 3
-10 2 -10 -2 0 -5 -7 -18 -15 -29 -15 -19 -15 -19 -9 1 4 15 1 13 -10 -5 -8
-14 -16 -20 -16 -15 0 6 -5 2 -11 -8 -6 -9 -14 -15 -20 -12 -5 4 -9 -1 -9 -9
0 -8 -5 -18 -12 -22 -7 -4 -8 -3 -4 4 5 8 2 10 -9 6 -9 -4 -13 -9 -10 -12 7
-8 -47 -42 -57 -36 -4 3 -5 -2 -2 -11 4 -9 3 -15 -2 -14 -17 4 -44 -13 -37
-24 3 -5 1 -7 -5 -3 -6 3 -13 2 -17 -4 -4 -6 -12 -7 -18 -4 -7 4 -9 4 -5 -1 9
-9 -17 -36 -37 -39 -8 -1 -22 -11 -31 -22 -8 -10 -12 -13 -8 -5 5 9 -2 7 -18
-5 -14 -10 -24 -22 -22 -25 2 -4 -8 -10 -22 -13 -14 -4 -35 -16 -47 -26 -11
-11 -29 -20 -38 -20 -10 0 -21 -5 -24 -10 -4 -6 -11 -8 -16 -4 -5 3 -8 0 -7
-8 2 -7 -4 -13 -12 -13 -8 0 -18 -4 -22 -9 -6 -10 -17 -13 -73 -20 -25 -3 -27
-2 -12 9 9 6 14 14 11 17 -3 3 29 41 70 84 42 43 76 74 76 69 1 -6 7 1 15 15
7 14 16 24 19 23 15 -7 26 -2 26 12 0 8 7 15 15 15 8 0 15 5 15 11 0 6 7 9 14
6 10 -4 13 -1 9 9 -3 7 0 14 5 14 6 0 18 8 28 18 10 9 21 17 25 17 4 0 22 16
40 35 18 19 29 29 25 23 -4 -7 -3 -13 2 -13 6 0 12 7 16 15 3 8 17 20 31 25
16 6 23 14 19 22 -5 7 -2 9 9 5 9 -3 18 0 21 9 3 9 10 12 16 9 5 -3 10 1 10
10 0 9 5 13 10 10 6 -3 10 -1 10 5 0 7 7 9 16 6 8 -3 13 -2 10 3 -3 5 2 15 11
22 14 12 16 12 9 -1 -5 -8 4 -2 19 13 15 16 33 26 42 23 8 -3 12 -2 10 2 -5 7
19 34 27 30 2 -2 16 7 29 19 14 12 28 19 31 16 3 -4 6 -1 6 5 0 7 7 12 15 12
9 0 18 7 21 15 4 8 10 12 15 9 5 -3 9 0 9 5 0 6 9 11 21 11 11 0 18 4 15 9 -6
9 28 23 56 24 9 0 14 5 12 12 -5 11 2 17 31 26 6 1 16 9 23 16 8 7 18 11 23 8
5 -4 9 -3 9 2 0 4 12 17 27 27 14 11 23 15 20 9 -3 -5 0 -10 7 -10 8 0 12 7 8
15 -3 10 -1 13 6 8 7 -4 12 -2 12 5 0 7 3 10 6 7 3 -4 1 -16 -6 -27z"/>
<path d="M2735 7329 c-4 -6 -5 -12 -2 -15 2 -3 7 2 10 11 7 17 1 20 -8 4z"/>
<path d="M5459 6618 c-17 -15 -41 -17 -51 -3 -5 6 -8 6 -8 -1 0 -6 -15 -10
-34 -9 -19 0 -32 -3 -30 -7 3 -4 -2 -8 -11 -8 -20 0 -36 -41 -23 -57 7 -9 6
-13 -3 -14 -8 0 -4 -4 9 -9 12 -5 22 -17 22 -27 0 -11 3 -14 8 -8 4 6 16 11
27 11 11 0 23 -5 27 -11 5 -6 8 -5 8 3 0 7 4 11 9 7 5 -3 13 -1 16 5 5 8 11 8
20 0 9 -8 14 -7 18 4 4 9 14 12 26 9 12 -3 18 -10 14 -17 -4 -6 1 -5 10 2 9 8
21 11 26 8 5 -4 13 -2 16 4 5 8 12 7 23 -2 13 -11 14 -11 7 2 -8 13 -7 13 8 1
12 -9 17 -10 17 -2 0 7 8 12 18 11 9 -1 28 1 40 5 18 6 20 10 10 16 -10 7 -10
9 0 9 7 0 12 13 12 31 0 47 -16 55 -103 53 -43 -1 -80 -4 -84 -8 -3 -3 -12 -1
-19 4 -8 8 -16 7 -25 -2z"/>
<path d="M3867 4263 c-4 -3 -7 -15 -7 -25 0 -10 -4 -18 -10 -18 -5 0 -14 -10
-21 -21 -9 -17 -8 -20 3 -14 7 5 2 -4 -12 -20 -14 -16 -19 -25 -12 -21 6 4 12
3 12 -3 0 -5 -5 -11 -12 -13 -6 -2 -13 -15 -15 -29 -2 -13 -8 -26 -13 -27 -6
-2 -8 -8 -4 -13 3 -5 1 -9 -4 -9 -6 0 -13 -7 -16 -16 -3 -9 -2 -12 5 -8 6 3 5
-3 -3 -15 -7 -12 -16 -21 -21 -21 -4 0 -5 -5 -2 -10 4 -6 0 -21 -7 -33 -25
-39 -28 -55 -10 -52 9 1 20 -3 24 -9 6 -8 8 -8 8 1 0 6 9 10 19 8 14 -2 21 4
25 20 5 18 11 22 23 18 11 -5 14 -3 8 6 -6 10 -3 11 13 2 24 -13 35 -14 28 -3
-2 4 4 8 14 8 10 0 17 -4 14 -7 -2 -4 8 -6 23 -5 34 4 61 -13 41 -25 -9 -6 -6
-9 10 -9 15 0 21 -4 16 -12 -5 -7 -3 -8 7 -2 8 4 23 8 33 9 14 0 20 8 20 28 1
16 -3 27 -12 27 -7 0 -10 5 -7 10 3 6 1 10 -5 10 -6 0 -9 4 -5 9 3 5 1 12 -5
16 -6 4 -8 11 -5 16 4 5 1 9 -4 9 -6 0 -11 8 -11 18 0 10 -7 27 -15 38 -8 12
-11 24 -8 28 3 3 1 6 -7 6 -10 0 -10 3 0 16 11 12 11 15 0 12 -8 -2 -17 11
-23 30 -5 17 -14 32 -19 32 -5 0 -7 4 -3 9 3 5 1 12 -5 16 -5 3 -10 15 -10 27
0 18 -2 19 -17 7 -11 -10 -14 -10 -9 -1 8 13 4 16 -7 5z m28 -181 c-1 -9 4
-25 13 -34 9 -12 11 -18 4 -18 -7 0 -12 -5 -12 -11 0 -5 5 -7 10 -4 6 3 10 1
10 -5 0 -7 -6 -10 -14 -7 -7 3 -19 0 -25 -6 -8 -8 -11 -8 -11 0 0 7 -9 10 -20
8 -14 -3 -18 0 -13 8 8 12 9 17 12 38 0 5 6 7 11 4 6 -3 10 -1 10 4 0 6 -6 11
-12 11 -7 1 -3 6 10 13 12 7 19 17 15 22 -4 4 -3 5 4 2 6 -4 10 -15 8 -25z"/>
<path d="M4976 4254 c-7 -15 -10 -197 -7 -336 l1 -27 83 2 c45 1 88 6 96 11 9
6 12 5 8 -1 -3 -5 0 -10 7 -10 8 0 12 7 8 15 -4 11 -1 13 8 7 8 -5 18 -1 27
10 7 11 13 15 13 10 0 -11 50 47 51 60 1 6 1 13 0 18 0 4 3 7 9 7 5 0 6 7 3
17 -4 9 -2 14 3 10 14 -8 9 50 -6 67 -7 10 -8 16 0 21 7 4 5 11 -5 21 -8 9
-12 21 -8 27 3 7 3 9 -2 5 -8 -8 -35 15 -35 31 0 6 -7 8 -15 5 -8 -4 -17 1
-21 9 -3 9 -15 14 -30 12 -13 -1 -27 2 -31 8 -4 6 -1 7 7 2 8 -5 11 -4 7 2 -4
7 -20 8 -41 3 -24 -5 -36 -4 -39 4 -3 8 -9 7 -20 -3 -12 -9 -17 -10 -17 -2 0
8 -5 9 -19 1 -14 -7 -21 -6 -23 2 -3 7 -8 4 -12 -8z m137 -63 c14 8 18 8 13 0
-6 -10 13 -16 37 -12 4 0 6 -3 5 -8 -2 -5 8 -19 22 -30 20 -19 22 -24 10 -31
-8 -6 -10 -10 -4 -10 19 0 23 -37 6 -61 -12 -18 -12 -21 -1 -14 8 4 4 -2 -8
-13 -25 -25 -98 -68 -88 -52 3 5 2 10 -4 10 -5 0 -13 -5 -16 -10 -10 -16 -32
12 -37 48 -2 18 -1 32 4 32 5 0 6 5 2 12 -11 18 -10 68 1 68 6 0 3 5 -5 10
-13 9 -13 10 0 10 12 0 13 2 1 9 -11 7 -10 12 5 28 11 11 23 16 28 12 5 -4 18
-3 29 2z"/>
<path d="M6346 4254 c-9 -8 -14 -20 -11 -25 4 -5 1 -9 -5 -9 -6 0 -8 -4 -5
-10 3 -5 1 -10 -5 -10 -6 0 -8 -4 -5 -10 3 -5 2 -10 -4 -10 -6 0 -8 -7 -5 -15
4 -8 1 -15 -6 -15 -6 0 -8 -4 -5 -10 3 -5 2 -10 -3 -10 -6 0 -13 -7 -16 -16
-4 -10 -2 -13 7 -8 6 4 4 -2 -6 -13 -9 -11 -14 -23 -10 -26 3 -4 1 -7 -6 -7
-7 0 -10 -4 -6 -9 3 -5 -1 -15 -8 -23 -8 -7 -12 -19 -9 -26 2 -7 -4 -20 -14
-27 -11 -8 -15 -15 -10 -15 5 0 3 -6 -3 -14 -7 -8 -14 -23 -16 -35 -3 -17 0
-20 26 -17 16 2 29 -1 29 -5 0 -5 8 -1 18 9 11 9 17 20 15 24 -5 11 32 19 52
12 11 -5 16 -3 12 2 -3 5 3 10 13 10 10 0 16 -4 14 -8 -7 -11 4 -10 27 2 13 7
19 7 19 0 0 -5 7 -10 15 -10 8 0 15 -9 15 -21 0 -11 5 -17 10 -14 6 3 10 2 10
-4 0 -7 8 -7 24 -1 13 5 27 6 30 3 3 -4 6 6 6 21 0 18 -4 25 -12 20 -7 -5 -9
0 -6 14 4 13 0 23 -8 26 -8 3 -14 17 -14 31 0 14 -4 25 -10 25 -5 0 -10 9 -10
19 0 11 -4 21 -9 23 -5 2 -11 14 -13 28 -1 14 -9 31 -16 38 -7 8 -10 18 -7 23
4 5 1 9 -4 9 -6 0 -11 9 -11 20 0 11 -4 20 -10 20 -5 0 -10 7 -10 16 0 8 -6
22 -14 30 -13 12 -17 12 -30 -2z m44 -196 c17 -44 20 -58 11 -58 -4 0 -13 6
-20 13 -9 7 -11 7 -8 1 8 -14 -20 -27 -28 -13 -4 5 -10 7 -14 5 -4 -3 -7 5 -6
17 2 12 7 21 12 20 6 -1 9 9 7 22 -4 39 31 33 46 -7z"/>
<path d="M7459 4270 c-1 -3 -3 -89 -4 -191 l-2 -186 39 0 c21 0 39 5 39 11 1
6 2 18 3 26 1 8 -2 23 -7 34 -6 12 -5 16 1 12 6 -3 9 15 8 49 l-2 56 25 -33
c14 -18 31 -41 36 -53 6 -11 18 -21 27 -23 19 -4 58 27 58 46 0 7 5 10 10 7 6
-3 10 1 10 9 0 9 7 16 16 16 10 0 14 5 10 16 -3 8 -2 12 4 9 5 -3 9 -21 8 -40
-1 -20 -5 -32 -11 -28 -6 4 -7 1 -1 -8 5 -8 9 -30 10 -49 1 -19 2 -40 3 -45 0
-6 17 -11 35 -12 39 -1 48 15 34 55 -5 15 -4 21 2 17 11 -7 9 23 -3 42 -4 6
-2 15 4 19 8 5 9 3 4 -6 -6 -9 -4 -11 5 -5 10 6 10 10 -2 19 -13 9 -13 13 -2
24 11 10 11 17 1 34 -10 17 -9 22 1 25 10 4 8 9 -5 20 -10 8 -12 12 -5 8 6 -3
12 -1 12 4 0 6 -5 11 -11 11 -6 0 -3 7 6 16 11 12 13 20 6 27 -6 6 -11 23 -11
37 0 17 -5 27 -15 27 -8 0 -15 -4 -15 -9 0 -4 -13 -21 -30 -36 -16 -16 -30
-34 -30 -41 0 -6 -4 -11 -10 -11 -5 0 -10 -6 -10 -12 -1 -17 -35 -58 -49 -58
-5 0 -15 -8 -20 -17 -8 -15 -11 -15 -12 -3 -1 8 -1 19 0 23 1 5 -2 6 -7 3 -5
-3 -16 4 -25 14 -11 13 -12 20 -4 24 7 2 4 5 -6 5 -10 1 -15 6 -12 11 3 6 -1
10 -10 10 -12 0 -15 5 -11 17 4 10 4 14 0 11 -4 -4 -20 9 -35 29 -16 20 -29
32 -29 27 0 -5 -5 -2 -10 6 -5 8 -10 13 -11 10z"/>
</g>
</svg>
